%TF.GenerationSoftware,KiCad,Pcbnew,10.0.5*%
%TF.CreationDate,2026-07-27T21:44:01+02:00*%
%TF.ProjectId,soil_probe,736f696c-5f70-4726-9f62-652e6b696361,rev?*%
%TF.SameCoordinates,Original*%
%TF.FileFunction,Copper,L1,Top*%
%TF.FilePolarity,Positive*%
%FSLAX46Y46*%
G04 Gerber Fmt 4.6, Leading zero omitted, Abs format (unit mm)*
G04 Created by KiCad (PCBNEW 10.0.5) date 2026-07-27 21:44:01*
%MOMM*%
%LPD*%
G01*
G04 APERTURE LIST*
G04 Aperture macros list*
%AMRoundRect*
0 Rectangle with rounded corners*
0 $1 Rounding radius*
0 $2 $3 $4 $5 $6 $7 $8 $9 X,Y pos of 4 corners*
0 Add a 4 corners polygon primitive as box body*
4,1,4,$2,$3,$4,$5,$6,$7,$8,$9,$2,$3,0*
0 Add four circle primitives for the rounded corners*
1,1,$1+$1,$2,$3*
1,1,$1+$1,$4,$5*
1,1,$1+$1,$6,$7*
1,1,$1+$1,$8,$9*
0 Add four rect primitives between the rounded corners*
20,1,$1+$1,$2,$3,$4,$5,0*
20,1,$1+$1,$4,$5,$6,$7,0*
20,1,$1+$1,$6,$7,$8,$9,0*
20,1,$1+$1,$8,$9,$2,$3,0*%
G04 Aperture macros list end*
%TA.AperFunction,SMDPad,CuDef*%
%ADD10R,10.000000X15.000000*%
%TD*%
%TA.AperFunction,SMDPad,CuDef*%
%ADD11RoundRect,0.200000X0.200000X0.275000X-0.200000X0.275000X-0.200000X-0.275000X0.200000X-0.275000X0*%
%TD*%
%TA.AperFunction,SMDPad,CuDef*%
%ADD12RoundRect,0.125000X0.000010X-0.200000X0.000010X0.200000X-0.000010X0.200000X-0.000010X-0.200000X0*%
%TD*%
%TA.AperFunction,SMDPad,CuDef*%
%ADD13R,2.000000X1.200000*%
%TD*%
%TA.AperFunction,SMDPad,CuDef*%
%ADD14RoundRect,0.200000X-0.200000X-0.275000X0.200000X-0.275000X0.200000X0.275000X-0.200000X0.275000X0*%
%TD*%
%TA.AperFunction,ComponentPad*%
%ADD15R,1.700000X1.700000*%
%TD*%
%TA.AperFunction,ComponentPad*%
%ADD16C,1.700000*%
%TD*%
%TA.AperFunction,SMDPad,CuDef*%
%ADD17RoundRect,0.225000X-0.225000X-0.250000X0.225000X-0.250000X0.225000X0.250000X-0.225000X0.250000X0*%
%TD*%
%TA.AperFunction,ViaPad*%
%ADD18C,0.700000*%
%TD*%
%TA.AperFunction,Conductor*%
%ADD19C,0.200000*%
%TD*%
G04 APERTURE END LIST*
D10*
%TO.P,U1,1,SENSE1_1*%
%TO.N,Net-(U1-SENSE1)*%
X142740852Y-134500000D03*
%TO.P,U1,2,SENSE2_2*%
%TO.N,Net-(U1-SENSE2)*%
X142740852Y-112500000D03*
%TO.P,U1,3,SENSE3_3*%
%TO.N,Net-(U1-SENSE3)*%
X142740852Y-90500000D03*
%TO.P,U1,4,REF_4*%
%TO.N,Net-(U1-REF)*%
X142740852Y-68500000D03*
%TD*%
D11*
%TO.P,R1,1*%
%TO.N,+3.3V*%
X145350000Y-49125000D03*
%TO.P,R1,2*%
%TO.N,/SDA*%
X143700000Y-49125000D03*
%TD*%
D12*
%TO.P,U4,1,SHLD1_1*%
%TO.N,Net-(U1-SHLD)*%
X142250000Y-56250000D03*
%TO.P,U4,2,CIN1_2*%
%TO.N,Net-(U1-SENSE1)*%
X142750000Y-56250000D03*
%TO.P,U4,3,CIN2_3*%
%TO.N,Net-(U1-SENSE2)*%
X143250000Y-56250000D03*
%TO.P,U4,4,CIN3_4*%
%TO.N,Net-(U1-SENSE3)*%
X143750000Y-56250000D03*
%TO.P,U4,5,CIN4_5*%
%TO.N,Net-(U1-REF)*%
X144250000Y-56250000D03*
%TO.P,U4,6,SHLD2_6*%
%TO.N,unconnected-(U4-SHLD2-Pad6)*%
X144250000Y-53500000D03*
%TO.P,U4,7,GND_7*%
%TO.N,GND*%
X143750000Y-53500000D03*
%TO.P,U4,8,VDD_8*%
%TO.N,+3.3V*%
X143250000Y-53500000D03*
%TO.P,U4,9,SCL_9*%
%TO.N,/SDA*%
X142750000Y-53500000D03*
%TO.P,U4,10,SDA_10*%
%TO.N,/SCL*%
X142250000Y-53500000D03*
D13*
%TO.P,U4,11,DAP_11*%
%TO.N,GND*%
X143250000Y-54875000D03*
%TD*%
D14*
%TO.P,R2,1*%
%TO.N,+3.3V*%
X139700000Y-49125000D03*
%TO.P,R2,2*%
%TO.N,/SCL*%
X141350000Y-49125000D03*
%TD*%
D15*
%TO.P,J1,1,Pin_1_1*%
%TO.N,+3.3V*%
X138930852Y-40500000D03*
D16*
%TO.P,J1,2,Pin_2_2*%
%TO.N,/SCL*%
X141470852Y-40500000D03*
%TO.P,J1,3,Pin_3_3*%
%TO.N,/SDA*%
X144010852Y-40500000D03*
%TO.P,J1,4,Pin_4_4*%
%TO.N,GND*%
X146550852Y-40500000D03*
%TD*%
D17*
%TO.P,C1,1*%
%TO.N,+3.3V*%
X143750000Y-50625000D03*
%TO.P,C1,2*%
%TO.N,GND*%
X145300000Y-50625000D03*
%TD*%
%TO.P,C2,1*%
%TO.N,+3.3V*%
X143750000Y-52125000D03*
%TO.P,C2,2*%
%TO.N,GND*%
X145300000Y-52125000D03*
%TD*%
D18*
%TO.N,GND*%
X143250000Y-54875000D03*
%TO.N,+3.3V*%
X141500000Y-48000000D03*
X143500000Y-48000000D03*
%TO.N,Net-(U1-SENSE1)*%
X145000000Y-58449998D03*
X142500000Y-57750000D03*
%TO.N,Net-(U1-SHLD)*%
X141500000Y-56250000D03*
%TD*%
%TO.N,GND*%
D19*
X143750000Y-53500000D02*
X143750000Y-54375000D01*
X143750000Y-54375000D02*
X143250000Y-54875000D01*
%TO.N,/SCL*%
X141350000Y-49125000D02*
X142000000Y-49125000D01*
X141470852Y-40500000D02*
X142250000Y-41279148D01*
X142000000Y-49125000D02*
X142250000Y-49375000D01*
X142250000Y-53500000D02*
X142250000Y-49375000D01*
X142250000Y-41279148D02*
X142250000Y-49375000D01*
%TO.N,/SDA*%
X142750000Y-41250000D02*
X143500000Y-40500000D01*
X143500000Y-40500000D02*
X144010852Y-40500000D01*
X142750000Y-53500000D02*
X142750000Y-49375000D01*
X143000000Y-49125000D02*
X142750000Y-49375000D01*
X142750000Y-49375000D02*
X142750000Y-41250000D01*
X143700000Y-49125000D02*
X143000000Y-49125000D01*
%TO.N,+3.3V*%
X140700000Y-48000000D02*
X139700000Y-47000000D01*
X143250000Y-52625000D02*
X143750000Y-52125000D01*
X145350000Y-49125000D02*
X145350000Y-48487500D01*
X139700000Y-41269148D02*
X138930852Y-40500000D01*
X139700000Y-47000000D02*
X139700000Y-41269148D01*
X139700000Y-49125000D02*
X139700000Y-47000000D01*
X144862500Y-48000000D02*
X143500000Y-48000000D01*
X143850000Y-50625000D02*
X145350000Y-49125000D01*
X141500000Y-48000000D02*
X140700000Y-48000000D01*
X145350000Y-48487500D02*
X144862500Y-48000000D01*
X143750000Y-52125000D02*
X143750000Y-50625000D01*
X143250000Y-53500000D02*
X143250000Y-52625000D01*
X143750000Y-50625000D02*
X143850000Y-50625000D01*
%TO.N,Net-(U1-SENSE1)*%
X149250000Y-59750000D02*
X147949998Y-58449998D01*
X142500000Y-57750000D02*
X142750000Y-57500000D01*
X148500000Y-127500000D02*
X149250000Y-126750000D01*
X143250000Y-127500000D02*
X148500000Y-127500000D01*
X149250000Y-126750000D02*
X149250000Y-59750000D01*
X147949998Y-58449998D02*
X145000000Y-58449998D01*
X142750000Y-57500000D02*
X142750000Y-56250000D01*
%TO.N,Net-(U1-SENSE2)*%
X143250000Y-56250000D02*
X143250000Y-58000000D01*
X143250000Y-58000000D02*
X142250000Y-59000000D01*
X136000000Y-60500000D02*
X136000000Y-104750000D01*
X142250000Y-59000000D02*
X137500000Y-59000000D01*
X136750000Y-105500000D02*
X143250000Y-105500000D01*
X136000000Y-104750000D02*
X136750000Y-105500000D01*
X137500000Y-59000000D02*
X136000000Y-60500000D01*
%TO.N,Net-(U1-REF)*%
X144250000Y-60500000D02*
X144250000Y-56250000D01*
X143250000Y-61500000D02*
X144250000Y-60500000D01*
%TO.N,Net-(U1-SHLD)*%
X141500000Y-56250000D02*
X142250000Y-56250000D01*
%TO.N,Net-(U1-SENSE3)*%
X137500000Y-60000000D02*
X136750000Y-60750000D01*
X143750000Y-58750000D02*
X142500000Y-60000000D01*
X137500000Y-83500000D02*
X143250000Y-83500000D01*
X136750000Y-82750000D02*
X137500000Y-83500000D01*
X136750000Y-60750000D02*
X136750000Y-82750000D01*
X143750000Y-56250000D02*
X143750000Y-58750000D01*
X142500000Y-60000000D02*
X137500000Y-60000000D01*
%TD*%
%TA.AperFunction,Conductor*%
%TO.N,GND*%
G36*
X149892539Y-38820185D02*
G01*
X149938294Y-38872989D01*
X149949500Y-38924500D01*
X149949500Y-55426184D01*
X149929815Y-55493223D01*
X149877011Y-55538978D01*
X149825093Y-55550183D01*
X144873593Y-55533931D01*
X144806619Y-55514027D01*
X144761037Y-55461073D01*
X144750000Y-55409932D01*
X144750000Y-55125000D01*
X141750000Y-55125000D01*
X141750000Y-55281471D01*
X141730315Y-55348510D01*
X141677511Y-55394265D01*
X141608353Y-55404209D01*
X141601810Y-55403089D01*
X141583767Y-55399500D01*
X141416233Y-55399500D01*
X141416228Y-55399500D01*
X141251925Y-55432182D01*
X141251917Y-55432184D01*
X141097140Y-55496295D01*
X141091001Y-55500397D01*
X141024322Y-55521269D01*
X141021711Y-55521288D01*
X135674093Y-55503736D01*
X135607119Y-55483832D01*
X135561537Y-55430878D01*
X135550500Y-55379737D01*
X135550500Y-39602135D01*
X137580352Y-39602135D01*
X137580352Y-41397870D01*
X137580353Y-41397876D01*
X137586760Y-41457483D01*
X137637054Y-41592328D01*
X137637058Y-41592335D01*
X137723304Y-41707544D01*
X137723307Y-41707547D01*
X137838516Y-41793793D01*
X137838523Y-41793797D01*
X137973369Y-41844091D01*
X137973368Y-41844091D01*
X137980296Y-41844835D01*
X138032979Y-41850500D01*
X138975500Y-41850499D01*
X139042539Y-41870183D01*
X139088294Y-41922987D01*
X139099500Y-41974499D01*
X139099500Y-46913330D01*
X139099499Y-46913348D01*
X139099499Y-47089046D01*
X139099500Y-47089059D01*
X139099500Y-48208480D01*
X139079815Y-48275519D01*
X139063181Y-48296161D01*
X138944531Y-48414810D01*
X138944530Y-48414811D01*
X138856522Y-48560393D01*
X138805913Y-48722807D01*
X138799500Y-48793386D01*
X138799500Y-49456613D01*
X138805913Y-49527192D01*
X138856522Y-49689606D01*
X138944530Y-49835188D01*
X139064811Y-49955469D01*
X139064813Y-49955470D01*
X139064815Y-49955472D01*
X139210394Y-50043478D01*
X139372804Y-50094086D01*
X139443384Y-50100500D01*
X139443387Y-50100500D01*
X139956613Y-50100500D01*
X139956616Y-50100500D01*
X140027196Y-50094086D01*
X140189606Y-50043478D01*
X140335185Y-49955472D01*
X140340579Y-49950078D01*
X140437319Y-49853339D01*
X140498642Y-49819854D01*
X140568334Y-49824838D01*
X140612681Y-49853339D01*
X140714811Y-49955469D01*
X140714813Y-49955470D01*
X140714815Y-49955472D01*
X140860394Y-50043478D01*
X141022804Y-50094086D01*
X141093384Y-50100500D01*
X141093387Y-50100500D01*
X141525500Y-50100500D01*
X141592539Y-50120185D01*
X141638294Y-50172989D01*
X141649500Y-50224500D01*
X141649500Y-53107279D01*
X141644577Y-53141872D01*
X141627292Y-53201370D01*
X141627290Y-53201379D01*
X141624500Y-53236829D01*
X141624500Y-53763150D01*
X141624501Y-53763175D01*
X141627291Y-53798627D01*
X141671380Y-53950385D01*
X141671382Y-53950391D01*
X141743371Y-54072118D01*
X141760554Y-54139843D01*
X141757318Y-54163744D01*
X141756402Y-54167621D01*
X141750000Y-54227155D01*
X141750000Y-54625000D01*
X144750000Y-54625000D01*
X144750000Y-54227172D01*
X144749999Y-54227155D01*
X144743598Y-54167624D01*
X144742683Y-54163751D01*
X144742848Y-54160656D01*
X144742769Y-54159913D01*
X144742889Y-54159900D01*
X144746425Y-54093981D01*
X144756622Y-54072126D01*
X144828618Y-53950390D01*
X144872709Y-53798627D01*
X144875500Y-53763163D01*
X144875499Y-53236838D01*
X144875080Y-53231511D01*
X144889446Y-53163134D01*
X144938499Y-53113379D01*
X145006665Y-53098042D01*
X145011303Y-53098428D01*
X145026686Y-53099999D01*
X145550000Y-53099999D01*
X145573308Y-53099999D01*
X145573322Y-53099998D01*
X145672607Y-53089855D01*
X145833481Y-53036547D01*
X145833492Y-53036542D01*
X145977728Y-52947575D01*
X145977732Y-52947572D01*
X146097572Y-52827732D01*
X146097575Y-52827728D01*
X146186542Y-52683492D01*
X146186547Y-52683481D01*
X146239855Y-52522606D01*
X146249999Y-52423322D01*
X146250000Y-52423309D01*
X146250000Y-52375000D01*
X145550000Y-52375000D01*
X145550000Y-53099999D01*
X145026686Y-53099999D01*
X145050000Y-53099998D01*
X145050000Y-51875000D01*
X145550000Y-51875000D01*
X146249999Y-51875000D01*
X146249999Y-51826692D01*
X146249998Y-51826677D01*
X146239855Y-51727392D01*
X146186547Y-51566518D01*
X146186544Y-51566511D01*
X146108570Y-51440098D01*
X146090129Y-51372705D01*
X146108570Y-51309902D01*
X146186544Y-51183488D01*
X146186547Y-51183481D01*
X146239855Y-51022606D01*
X146249999Y-50923322D01*
X146250000Y-50923309D01*
X146250000Y-50875000D01*
X145550000Y-50875000D01*
X145550000Y-51875000D01*
X145050000Y-51875000D01*
X145050000Y-50749000D01*
X145069685Y-50681961D01*
X145122489Y-50636206D01*
X145174000Y-50625000D01*
X145300000Y-50625000D01*
X145300000Y-50499000D01*
X145319685Y-50431961D01*
X145372489Y-50386206D01*
X145424000Y-50375000D01*
X146249999Y-50375000D01*
X146249999Y-50326692D01*
X146249998Y-50326677D01*
X146239855Y-50227392D01*
X146186547Y-50066518D01*
X146186542Y-50066507D01*
X146114727Y-49950078D01*
X146096286Y-49882686D01*
X146114148Y-49820832D01*
X146193478Y-49689606D01*
X146244086Y-49527196D01*
X146250500Y-49456616D01*
X146250500Y-48793384D01*
X146244086Y-48722804D01*
X146193478Y-48560394D01*
X146105472Y-48414815D01*
X146105470Y-48414813D01*
X146105469Y-48414811D01*
X145985188Y-48294530D01*
X145985185Y-48294528D01*
X145930751Y-48261621D01*
X145887517Y-48217507D01*
X145871488Y-48189744D01*
X145830520Y-48118784D01*
X145718716Y-48006980D01*
X145718715Y-48006979D01*
X145714385Y-48002649D01*
X145714374Y-48002639D01*
X145350090Y-47638355D01*
X145350088Y-47638352D01*
X145231217Y-47519481D01*
X145231216Y-47519480D01*
X145124448Y-47457838D01*
X145124447Y-47457837D01*
X145094283Y-47440422D01*
X145038381Y-47425443D01*
X144941557Y-47399499D01*
X144783443Y-47399499D01*
X144775847Y-47399499D01*
X144775831Y-47399500D01*
X144153651Y-47399500D01*
X144086612Y-47379815D01*
X144065970Y-47363181D01*
X144042162Y-47339373D01*
X143902860Y-47246295D01*
X143748082Y-47182184D01*
X143748074Y-47182182D01*
X143583771Y-47149500D01*
X143583767Y-47149500D01*
X143474500Y-47149500D01*
X143407461Y-47129815D01*
X143361706Y-47077011D01*
X143350500Y-47025500D01*
X143350500Y-41876108D01*
X143370185Y-41809069D01*
X143422989Y-41763314D01*
X143492147Y-41753370D01*
X143512802Y-41758173D01*
X143694609Y-41817246D01*
X143904565Y-41850500D01*
X143904566Y-41850500D01*
X144117138Y-41850500D01*
X144117139Y-41850500D01*
X144327095Y-41817246D01*
X144529264Y-41751557D01*
X144718668Y-41655051D01*
X144804990Y-41592335D01*
X144890638Y-41530109D01*
X144890640Y-41530106D01*
X144890644Y-41530104D01*
X145040956Y-41379792D01*
X145040958Y-41379788D01*
X145040961Y-41379786D01*
X145126742Y-41261717D01*
X145165903Y-41207816D01*
X145170645Y-41198508D01*
X145218615Y-41147711D01*
X145286435Y-41130911D01*
X145352571Y-41153445D01*
X145391615Y-41198500D01*
X145396225Y-41207547D01*
X145435580Y-41261716D01*
X146067889Y-40629408D01*
X146084927Y-40692993D01*
X146150753Y-40807007D01*
X146243845Y-40900099D01*
X146357859Y-40965925D01*
X146421442Y-40982962D01*
X145789134Y-41615269D01*
X145789134Y-41615270D01*
X145843301Y-41654624D01*
X146032634Y-41751095D01*
X146234722Y-41816757D01*
X146444606Y-41850000D01*
X146657098Y-41850000D01*
X146866979Y-41816757D01*
X146866982Y-41816757D01*
X147069069Y-41751095D01*
X147258406Y-41654622D01*
X147312568Y-41615270D01*
X147312569Y-41615270D01*
X146680260Y-40982962D01*
X146743845Y-40965925D01*
X146857859Y-40900099D01*
X146950951Y-40807007D01*
X147016777Y-40692993D01*
X147033814Y-40629408D01*
X147666122Y-41261717D01*
X147666122Y-41261716D01*
X147705474Y-41207554D01*
X147801947Y-41018217D01*
X147867609Y-40816130D01*
X147867609Y-40816127D01*
X147900852Y-40606246D01*
X147900852Y-40393753D01*
X147867609Y-40183872D01*
X147867609Y-40183869D01*
X147801947Y-39981782D01*
X147705476Y-39792449D01*
X147666122Y-39738282D01*
X147666121Y-39738282D01*
X147033814Y-40370590D01*
X147016777Y-40307007D01*
X146950951Y-40192993D01*
X146857859Y-40099901D01*
X146743845Y-40034075D01*
X146680261Y-40017037D01*
X147312568Y-39384728D01*
X147258402Y-39345375D01*
X147069069Y-39248904D01*
X146866981Y-39183242D01*
X146657098Y-39150000D01*
X146444606Y-39150000D01*
X146234724Y-39183242D01*
X146234721Y-39183242D01*
X146032634Y-39248904D01*
X145843291Y-39345380D01*
X145789134Y-39384727D01*
X145789134Y-39384728D01*
X146421443Y-40017037D01*
X146357859Y-40034075D01*
X146243845Y-40099901D01*
X146150753Y-40192993D01*
X146084927Y-40307007D01*
X146067889Y-40370591D01*
X145435580Y-39738282D01*
X145435579Y-39738282D01*
X145396232Y-39792440D01*
X145396228Y-39792446D01*
X145391612Y-39801505D01*
X145343633Y-39852297D01*
X145275811Y-39869087D01*
X145209678Y-39846543D01*
X145170646Y-39801493D01*
X145165903Y-39792184D01*
X145165901Y-39792181D01*
X145165900Y-39792179D01*
X145040961Y-39620213D01*
X144890638Y-39469890D01*
X144718672Y-39344951D01*
X144529266Y-39248444D01*
X144529265Y-39248443D01*
X144529264Y-39248443D01*
X144327095Y-39182754D01*
X144327093Y-39182753D01*
X144327092Y-39182753D01*
X144165809Y-39157208D01*
X144117139Y-39149500D01*
X143904565Y-39149500D01*
X143855894Y-39157208D01*
X143694612Y-39182753D01*
X143492437Y-39248444D01*
X143303031Y-39344951D01*
X143131065Y-39469890D01*
X142980742Y-39620213D01*
X142855801Y-39792182D01*
X142851336Y-39800946D01*
X142803361Y-39851742D01*
X142735540Y-39868536D01*
X142669405Y-39845998D01*
X142630368Y-39800946D01*
X142625902Y-39792182D01*
X142500961Y-39620213D01*
X142350638Y-39469890D01*
X142178672Y-39344951D01*
X141989266Y-39248444D01*
X141989265Y-39248443D01*
X141989264Y-39248443D01*
X141787095Y-39182754D01*
X141787093Y-39182753D01*
X141787092Y-39182753D01*
X141625809Y-39157208D01*
X141577139Y-39149500D01*
X141364565Y-39149500D01*
X141315894Y-39157208D01*
X141154612Y-39182753D01*
X140952437Y-39248444D01*
X140763031Y-39344951D01*
X140591067Y-39469889D01*
X140477525Y-39583431D01*
X140416202Y-39616915D01*
X140346510Y-39611931D01*
X140290577Y-39570059D01*
X140273662Y-39539082D01*
X140224649Y-39407671D01*
X140224645Y-39407664D01*
X140138399Y-39292455D01*
X140138396Y-39292452D01*
X140023187Y-39206206D01*
X140023180Y-39206202D01*
X139888334Y-39155908D01*
X139888335Y-39155908D01*
X139828735Y-39149501D01*
X139828733Y-39149500D01*
X139828725Y-39149500D01*
X139828716Y-39149500D01*
X138032981Y-39149500D01*
X138032975Y-39149501D01*
X137973368Y-39155908D01*
X137838523Y-39206202D01*
X137838516Y-39206206D01*
X137723307Y-39292452D01*
X137723304Y-39292455D01*
X137637058Y-39407664D01*
X137637054Y-39407671D01*
X137586760Y-39542517D01*
X137580353Y-39602116D01*
X137580352Y-39602135D01*
X135550500Y-39602135D01*
X135550500Y-38924500D01*
X135570185Y-38857461D01*
X135622989Y-38811706D01*
X135674500Y-38800500D01*
X149825500Y-38800500D01*
X149892539Y-38820185D01*
G37*
%TD.AperFunction*%
%TD*%
M02*
