%TF.GenerationSoftware,KiCad,Pcbnew,10.0.5*%
%TF.CreationDate,2026-08-16T21:55:28+02:00*%
%TF.ProjectId,soil_probe_oop,736f696c-5f70-4726-9f62-655f6f6f702e,rev?*%
%TF.SameCoordinates,Original*%
%TF.FileFunction,Copper,L2,Bot*%
%TF.FilePolarity,Positive*%
%FSLAX46Y46*%
G04 Gerber Fmt 4.6, Leading zero omitted, Abs format (unit mm)*
G04 Created by KiCad (PCBNEW 10.0.5) date 2026-08-16 21:55:28*
%MOMM*%
%LPD*%
G01*
G04 APERTURE LIST*
%TA.AperFunction,ComponentPad*%
%ADD10C,1.700000*%
%TD*%
%TA.AperFunction,ComponentPad*%
%ADD11R,1.700000X1.700000*%
%TD*%
%TA.AperFunction,SMDPad,CuDef*%
%ADD12R,6.000000X80.250000*%
%TD*%
%TA.AperFunction,ViaPad*%
%ADD13C,0.700000*%
%TD*%
%TA.AperFunction,Conductor*%
%ADD14C,0.250000*%
%TD*%
G04 APERTURE END LIST*
D10*
%TO.P,J1,4,Pin_4_4*%
%TO.N,GND*%
X147310000Y-42164000D03*
%TO.P,J1,3,Pin_3_3*%
%TO.N,/SCL*%
X144770000Y-42164000D03*
%TO.P,J1,2,Pin_2_2*%
%TO.N,/SDA*%
X142230000Y-42164000D03*
D11*
%TO.P,J1,1,Pin_1_1*%
%TO.N,+3.3V*%
X139690000Y-42164000D03*
%TD*%
D12*
%TO.P,U1,6,SHLD2_6*%
%TO.N,Net-(U1-SHLD2)*%
X154000000Y-104125000D03*
X133000000Y-104125000D03*
%TO.P,U1,5,SHLD1_5*%
%TO.N,/SHLD1*%
X147000000Y-104125000D03*
X140000000Y-104125000D03*
%TD*%
D13*
%TO.N,GND*%
X149750000Y-42250000D03*
X137750000Y-44250000D03*
X137750000Y-46000000D03*
X149250000Y-44500000D03*
X149250000Y-46250000D03*
X141500000Y-51750000D03*
X139750000Y-51750000D03*
X137750000Y-51750000D03*
X137750000Y-48000000D03*
X137750000Y-49750000D03*
X139750000Y-49750000D03*
X141500000Y-49750000D03*
X147500000Y-49750000D03*
X149250000Y-51750000D03*
X149250000Y-49750000D03*
X149250000Y-48000000D03*
%TO.N,Net-(U1-SHLD2)*%
X142000000Y-55000000D03*
X146312500Y-53937500D03*
%TO.N,/SHLD1*%
X142500000Y-56250000D03*
%TD*%
%TO.N,Net-(U1-SHLD2)*%
D14*
X146312500Y-53937500D02*
X154000000Y-61625000D01*
X154000000Y-61625000D02*
X154000000Y-104125000D01*
X146312500Y-53937500D02*
X145250000Y-55000000D01*
X145250000Y-55000000D02*
X142000000Y-55000000D01*
X133000000Y-104125000D02*
X133000000Y-64000000D01*
X133000000Y-64000000D02*
X142000000Y-55000000D01*
%TO.N,/SHLD1*%
X142500000Y-56250000D02*
X147000000Y-60750000D01*
X147000000Y-60750000D02*
X147000000Y-104125000D01*
X142500000Y-56250000D02*
X140000000Y-58750000D01*
X140000000Y-58750000D02*
X140000000Y-104125000D01*
%TD*%
%TA.AperFunction,Conductor*%
%TO.N,GND*%
G36*
X150642539Y-40452185D02*
G01*
X150688294Y-40504989D01*
X150699500Y-40556500D01*
X150699500Y-52516000D01*
X150679815Y-52583039D01*
X150627011Y-52628794D01*
X150575500Y-52640000D01*
X136424500Y-52640000D01*
X136357461Y-52620315D01*
X136311706Y-52567511D01*
X136300500Y-52516000D01*
X136300500Y-41266135D01*
X138339500Y-41266135D01*
X138339500Y-43061870D01*
X138339501Y-43061876D01*
X138345908Y-43121483D01*
X138396202Y-43256328D01*
X138396206Y-43256335D01*
X138482452Y-43371544D01*
X138482455Y-43371547D01*
X138597664Y-43457793D01*
X138597671Y-43457797D01*
X138732517Y-43508091D01*
X138732516Y-43508091D01*
X138739444Y-43508835D01*
X138792127Y-43514500D01*
X140587872Y-43514499D01*
X140647483Y-43508091D01*
X140782331Y-43457796D01*
X140897546Y-43371546D01*
X140983796Y-43256331D01*
X141032810Y-43124916D01*
X141074681Y-43068984D01*
X141140145Y-43044566D01*
X141208418Y-43059417D01*
X141236673Y-43080569D01*
X141350213Y-43194109D01*
X141522179Y-43319048D01*
X141522181Y-43319049D01*
X141522184Y-43319051D01*
X141711588Y-43415557D01*
X141913757Y-43481246D01*
X142123713Y-43514500D01*
X142123714Y-43514500D01*
X142336286Y-43514500D01*
X142336287Y-43514500D01*
X142546243Y-43481246D01*
X142748412Y-43415557D01*
X142937816Y-43319051D01*
X143024138Y-43256335D01*
X143109786Y-43194109D01*
X143109788Y-43194106D01*
X143109792Y-43194104D01*
X143260104Y-43043792D01*
X143260106Y-43043788D01*
X143260109Y-43043786D01*
X143385048Y-42871820D01*
X143385047Y-42871820D01*
X143385051Y-42871816D01*
X143389514Y-42863054D01*
X143437488Y-42812259D01*
X143505308Y-42795463D01*
X143571444Y-42817999D01*
X143610486Y-42863056D01*
X143614951Y-42871820D01*
X143739890Y-43043786D01*
X143890213Y-43194109D01*
X144062179Y-43319048D01*
X144062181Y-43319049D01*
X144062184Y-43319051D01*
X144251588Y-43415557D01*
X144453757Y-43481246D01*
X144663713Y-43514500D01*
X144663714Y-43514500D01*
X144876286Y-43514500D01*
X144876287Y-43514500D01*
X145086243Y-43481246D01*
X145288412Y-43415557D01*
X145477816Y-43319051D01*
X145564138Y-43256335D01*
X145649786Y-43194109D01*
X145649788Y-43194106D01*
X145649792Y-43194104D01*
X145800104Y-43043792D01*
X145800106Y-43043788D01*
X145800109Y-43043786D01*
X145885890Y-42925717D01*
X145925051Y-42871816D01*
X145929793Y-42862508D01*
X145977763Y-42811711D01*
X146045583Y-42794911D01*
X146111719Y-42817445D01*
X146150763Y-42862500D01*
X146155373Y-42871547D01*
X146194728Y-42925716D01*
X146827037Y-42293408D01*
X146844075Y-42356993D01*
X146909901Y-42471007D01*
X147002993Y-42564099D01*
X147117007Y-42629925D01*
X147180590Y-42646962D01*
X146548282Y-43279269D01*
X146548282Y-43279270D01*
X146602449Y-43318624D01*
X146791782Y-43415095D01*
X146993870Y-43480757D01*
X147203754Y-43514000D01*
X147416246Y-43514000D01*
X147626127Y-43480757D01*
X147626130Y-43480757D01*
X147828217Y-43415095D01*
X148017554Y-43318622D01*
X148071716Y-43279270D01*
X148071717Y-43279270D01*
X147439408Y-42646962D01*
X147502993Y-42629925D01*
X147617007Y-42564099D01*
X147710099Y-42471007D01*
X147775925Y-42356993D01*
X147792962Y-42293408D01*
X148425270Y-42925717D01*
X148425270Y-42925716D01*
X148464622Y-42871554D01*
X148561095Y-42682217D01*
X148626757Y-42480130D01*
X148626757Y-42480127D01*
X148660000Y-42270246D01*
X148660000Y-42057753D01*
X148626757Y-41847872D01*
X148626757Y-41847869D01*
X148561095Y-41645782D01*
X148464624Y-41456449D01*
X148425270Y-41402282D01*
X148425269Y-41402282D01*
X147792962Y-42034590D01*
X147775925Y-41971007D01*
X147710099Y-41856993D01*
X147617007Y-41763901D01*
X147502993Y-41698075D01*
X147439409Y-41681037D01*
X148071716Y-41048728D01*
X148017550Y-41009375D01*
X147828217Y-40912904D01*
X147626129Y-40847242D01*
X147416246Y-40814000D01*
X147203754Y-40814000D01*
X146993872Y-40847242D01*
X146993869Y-40847242D01*
X146791782Y-40912904D01*
X146602439Y-41009380D01*
X146548282Y-41048727D01*
X146548282Y-41048728D01*
X147180591Y-41681037D01*
X147117007Y-41698075D01*
X147002993Y-41763901D01*
X146909901Y-41856993D01*
X146844075Y-41971007D01*
X146827037Y-42034591D01*
X146194728Y-41402282D01*
X146194727Y-41402282D01*
X146155380Y-41456440D01*
X146155376Y-41456446D01*
X146150760Y-41465505D01*
X146102781Y-41516297D01*
X146034959Y-41533087D01*
X145968826Y-41510543D01*
X145929794Y-41465493D01*
X145925051Y-41456184D01*
X145925049Y-41456181D01*
X145925048Y-41456179D01*
X145800109Y-41284213D01*
X145649786Y-41133890D01*
X145477820Y-41008951D01*
X145288414Y-40912444D01*
X145288413Y-40912443D01*
X145288412Y-40912443D01*
X145086243Y-40846754D01*
X145086241Y-40846753D01*
X145086240Y-40846753D01*
X144924957Y-40821208D01*
X144876287Y-40813500D01*
X144663713Y-40813500D01*
X144615042Y-40821208D01*
X144453760Y-40846753D01*
X144251585Y-40912444D01*
X144062179Y-41008951D01*
X143890213Y-41133890D01*
X143739890Y-41284213D01*
X143614949Y-41456182D01*
X143610484Y-41464946D01*
X143562509Y-41515742D01*
X143494688Y-41532536D01*
X143428553Y-41509998D01*
X143389516Y-41464946D01*
X143385050Y-41456182D01*
X143260109Y-41284213D01*
X143109786Y-41133890D01*
X142937820Y-41008951D01*
X142748414Y-40912444D01*
X142748413Y-40912443D01*
X142748412Y-40912443D01*
X142546243Y-40846754D01*
X142546241Y-40846753D01*
X142546240Y-40846753D01*
X142384957Y-40821208D01*
X142336287Y-40813500D01*
X142123713Y-40813500D01*
X142075042Y-40821208D01*
X141913760Y-40846753D01*
X141711585Y-40912444D01*
X141522179Y-41008951D01*
X141350215Y-41133889D01*
X141236673Y-41247431D01*
X141175350Y-41280915D01*
X141105658Y-41275931D01*
X141049725Y-41234059D01*
X141032810Y-41203082D01*
X140983797Y-41071671D01*
X140983793Y-41071664D01*
X140897547Y-40956455D01*
X140897544Y-40956452D01*
X140782335Y-40870206D01*
X140782328Y-40870202D01*
X140647482Y-40819908D01*
X140647483Y-40819908D01*
X140587883Y-40813501D01*
X140587881Y-40813500D01*
X140587873Y-40813500D01*
X140587864Y-40813500D01*
X138792129Y-40813500D01*
X138792123Y-40813501D01*
X138732516Y-40819908D01*
X138597671Y-40870202D01*
X138597664Y-40870206D01*
X138482455Y-40956452D01*
X138482452Y-40956455D01*
X138396206Y-41071664D01*
X138396202Y-41071671D01*
X138345908Y-41206517D01*
X138339501Y-41266116D01*
X138339500Y-41266135D01*
X136300500Y-41266135D01*
X136300500Y-40556500D01*
X136320185Y-40489461D01*
X136372989Y-40443706D01*
X136424500Y-40432500D01*
X150575500Y-40432500D01*
X150642539Y-40452185D01*
G37*
%TD.AperFunction*%
%TD*%
M02*
