%TF.GenerationSoftware,KiCad,Pcbnew,10.0.5*%
%TF.CreationDate,2026-08-16T21:55:29+02:00*%
%TF.ProjectId,soil_probe_oop,736f696c-5f70-4726-9f62-655f6f6f702e,rev?*%
%TF.SameCoordinates,Original*%
%TF.FileFunction,Legend,Top*%
%TF.FilePolarity,Positive*%
%FSLAX46Y46*%
G04 Gerber Fmt 4.6, Leading zero omitted, Abs format (unit mm)*
G04 Created by KiCad (PCBNEW 10.0.5) date 2026-08-16 21:55:29*
%MOMM*%
%LPD*%
G01*
G04 APERTURE LIST*
%ADD10C,0.200000*%
%ADD11C,0.400000*%
%ADD12C,0.100000*%
%ADD13C,0.150000*%
%ADD14C,0.120000*%
G04 APERTURE END LIST*
D10*
G36*
X147499218Y-44284024D02*
G01*
X147570127Y-44319478D01*
X147637197Y-44386548D01*
X147672219Y-44491613D01*
X147672219Y-44613482D01*
X146872219Y-44613482D01*
X146872219Y-44491614D01*
X146907240Y-44386549D01*
X146974313Y-44319477D01*
X147045218Y-44284024D01*
X147213099Y-44242054D01*
X147331337Y-44242054D01*
X147499218Y-44284024D01*
G37*
G36*
X147983330Y-47019831D02*
G01*
X146561108Y-47019831D01*
X146561108Y-46332530D01*
X146672219Y-46332530D01*
X146672219Y-46475387D01*
X146673191Y-46485260D01*
X146673004Y-46487894D01*
X146673791Y-46491357D01*
X146674140Y-46494896D01*
X146675151Y-46497338D01*
X146677351Y-46507010D01*
X146724970Y-46649866D01*
X146732961Y-46667767D01*
X146735316Y-46670482D01*
X146736691Y-46673801D01*
X146749127Y-46688955D01*
X146844365Y-46784193D01*
X146852031Y-46790484D01*
X146853764Y-46792482D01*
X146856775Y-46794377D01*
X146859519Y-46796629D01*
X146861956Y-46797638D01*
X146870355Y-46802925D01*
X146965592Y-46850544D01*
X146967020Y-46851090D01*
X146967600Y-46851520D01*
X146975776Y-46854441D01*
X146983901Y-46857550D01*
X146984621Y-46857601D01*
X146986060Y-46858115D01*
X147176536Y-46905734D01*
X147179917Y-46906234D01*
X147181281Y-46906799D01*
X147188631Y-46907522D01*
X147195929Y-46908602D01*
X147197387Y-46908384D01*
X147200790Y-46908720D01*
X147343647Y-46908720D01*
X147347049Y-46908384D01*
X147348508Y-46908602D01*
X147355805Y-46907522D01*
X147363156Y-46906799D01*
X147364519Y-46906234D01*
X147367901Y-46905734D01*
X147558376Y-46858115D01*
X147559813Y-46857601D01*
X147560536Y-46857550D01*
X147568660Y-46854441D01*
X147576837Y-46851520D01*
X147577417Y-46851089D01*
X147578844Y-46850544D01*
X147674082Y-46802925D01*
X147682474Y-46797642D01*
X147684918Y-46796630D01*
X147687667Y-46794373D01*
X147690672Y-46792482D01*
X147692401Y-46790487D01*
X147700071Y-46784193D01*
X147795311Y-46688955D01*
X147807747Y-46673802D01*
X147809122Y-46670482D01*
X147811477Y-46667767D01*
X147819468Y-46649867D01*
X147867087Y-46507010D01*
X147869286Y-46497337D01*
X147870298Y-46494896D01*
X147870646Y-46491358D01*
X147871434Y-46487895D01*
X147871246Y-46485260D01*
X147872219Y-46475387D01*
X147872219Y-46380149D01*
X147871246Y-46370275D01*
X147871434Y-46367641D01*
X147870646Y-46364177D01*
X147870298Y-46360640D01*
X147869286Y-46358198D01*
X147867087Y-46348526D01*
X147819468Y-46205669D01*
X147811477Y-46187769D01*
X147809122Y-46185053D01*
X147807747Y-46181734D01*
X147795310Y-46166580D01*
X147747690Y-46118962D01*
X147732537Y-46106525D01*
X147707046Y-46095967D01*
X147696489Y-46091594D01*
X147676980Y-46089673D01*
X147343647Y-46089673D01*
X147324138Y-46091594D01*
X147288090Y-46106526D01*
X147260500Y-46134116D01*
X147245568Y-46170164D01*
X147243647Y-46189673D01*
X147243647Y-46380149D01*
X147245568Y-46399658D01*
X147260500Y-46435706D01*
X147288090Y-46463296D01*
X147324138Y-46478228D01*
X147363156Y-46478228D01*
X147399204Y-46463296D01*
X147426794Y-46435706D01*
X147441726Y-46399658D01*
X147443647Y-46380149D01*
X147443647Y-46289673D01*
X147635560Y-46289673D01*
X147637197Y-46291310D01*
X147672219Y-46396375D01*
X147672219Y-46459160D01*
X147637197Y-46564225D01*
X147570127Y-46631295D01*
X147499218Y-46666749D01*
X147331337Y-46708720D01*
X147213099Y-46708720D01*
X147045218Y-46666749D01*
X146974313Y-46631297D01*
X146907240Y-46564224D01*
X146872219Y-46459160D01*
X146872219Y-46356137D01*
X146909281Y-46282014D01*
X146916287Y-46263705D01*
X146919053Y-46224785D01*
X146906714Y-46187769D01*
X146881149Y-46158292D01*
X146846251Y-46140843D01*
X146807331Y-46138078D01*
X146770315Y-46150416D01*
X146740838Y-46175981D01*
X146730395Y-46192571D01*
X146682776Y-46287809D01*
X146675770Y-46306117D01*
X146675515Y-46309700D01*
X146674140Y-46313021D01*
X146672219Y-46332530D01*
X146561108Y-46332530D01*
X146561108Y-45754116D01*
X146672463Y-45754116D01*
X146674140Y-45767309D01*
X146674140Y-45780610D01*
X146676579Y-45786498D01*
X146677383Y-45792823D01*
X146683983Y-45804372D01*
X146689072Y-45816658D01*
X146693579Y-45821165D01*
X146696742Y-45826700D01*
X146707256Y-45834842D01*
X146716662Y-45844248D01*
X146722552Y-45846687D01*
X146727591Y-45850590D01*
X146740419Y-45854088D01*
X146752710Y-45859180D01*
X146762687Y-45860162D01*
X146765234Y-45860857D01*
X146767201Y-45860606D01*
X146772219Y-45861101D01*
X147772219Y-45861101D01*
X147791728Y-45859180D01*
X147827776Y-45844248D01*
X147855366Y-45816658D01*
X147870298Y-45780610D01*
X147870298Y-45741592D01*
X147855366Y-45705544D01*
X147827776Y-45677954D01*
X147791728Y-45663022D01*
X147772219Y-45661101D01*
X147148775Y-45661101D01*
X147821833Y-45276497D01*
X147825943Y-45273578D01*
X147827776Y-45272820D01*
X147829642Y-45270953D01*
X147837818Y-45265150D01*
X147845962Y-45254633D01*
X147855366Y-45245230D01*
X147857804Y-45239342D01*
X147861709Y-45234301D01*
X147865208Y-45221468D01*
X147870298Y-45209182D01*
X147870298Y-45202806D01*
X147871975Y-45196657D01*
X147870298Y-45183463D01*
X147870298Y-45170164D01*
X147867858Y-45164275D01*
X147867055Y-45157951D01*
X147860454Y-45146401D01*
X147855366Y-45134116D01*
X147850858Y-45129608D01*
X147847696Y-45124074D01*
X147837179Y-45115929D01*
X147827776Y-45106526D01*
X147821888Y-45104087D01*
X147816847Y-45100183D01*
X147804014Y-45096683D01*
X147791728Y-45091594D01*
X147781750Y-45090611D01*
X147779204Y-45089917D01*
X147777236Y-45090167D01*
X147772219Y-45089673D01*
X146772219Y-45089673D01*
X146752710Y-45091594D01*
X146716662Y-45106526D01*
X146689072Y-45134116D01*
X146674140Y-45170164D01*
X146674140Y-45209182D01*
X146689072Y-45245230D01*
X146716662Y-45272820D01*
X146752710Y-45287752D01*
X146772219Y-45289673D01*
X147395663Y-45289673D01*
X146722605Y-45674277D01*
X146718494Y-45677195D01*
X146716662Y-45677954D01*
X146714795Y-45679820D01*
X146706620Y-45685624D01*
X146698477Y-45696138D01*
X146689072Y-45705544D01*
X146686632Y-45711434D01*
X146682730Y-45716473D01*
X146679231Y-45729301D01*
X146674140Y-45741592D01*
X146674140Y-45747967D01*
X146672463Y-45754116D01*
X146561108Y-45754116D01*
X146561108Y-44475387D01*
X146672219Y-44475387D01*
X146672219Y-44713482D01*
X146674140Y-44732991D01*
X146689072Y-44769039D01*
X146716662Y-44796629D01*
X146752710Y-44811561D01*
X146772219Y-44813482D01*
X147772219Y-44813482D01*
X147791728Y-44811561D01*
X147827776Y-44796629D01*
X147855366Y-44769039D01*
X147870298Y-44732991D01*
X147872219Y-44713482D01*
X147872219Y-44475387D01*
X147871246Y-44465513D01*
X147871434Y-44462879D01*
X147870646Y-44459415D01*
X147870298Y-44455878D01*
X147869286Y-44453436D01*
X147867087Y-44443764D01*
X147819468Y-44300907D01*
X147811477Y-44283007D01*
X147809122Y-44280291D01*
X147807747Y-44276972D01*
X147795311Y-44261819D01*
X147700071Y-44166581D01*
X147692401Y-44160286D01*
X147690672Y-44158292D01*
X147687667Y-44156400D01*
X147684918Y-44154144D01*
X147682474Y-44153131D01*
X147674082Y-44147849D01*
X147578844Y-44100230D01*
X147577417Y-44099684D01*
X147576837Y-44099254D01*
X147568660Y-44096332D01*
X147560536Y-44093224D01*
X147559813Y-44093172D01*
X147558376Y-44092659D01*
X147367901Y-44045040D01*
X147364519Y-44044539D01*
X147363156Y-44043975D01*
X147355805Y-44043251D01*
X147348508Y-44042172D01*
X147347049Y-44042389D01*
X147343647Y-44042054D01*
X147200790Y-44042054D01*
X147197387Y-44042389D01*
X147195929Y-44042172D01*
X147188631Y-44043251D01*
X147181281Y-44043975D01*
X147179917Y-44044539D01*
X147176536Y-44045040D01*
X146986060Y-44092659D01*
X146984621Y-44093172D01*
X146983901Y-44093224D01*
X146975776Y-44096332D01*
X146967600Y-44099254D01*
X146967020Y-44099683D01*
X146965592Y-44100230D01*
X146870355Y-44147849D01*
X146861956Y-44153135D01*
X146859519Y-44154145D01*
X146856775Y-44156396D01*
X146853764Y-44158292D01*
X146852031Y-44160289D01*
X146844365Y-44166581D01*
X146749127Y-44261819D01*
X146736691Y-44276973D01*
X146735316Y-44280291D01*
X146732961Y-44283007D01*
X146724970Y-44300908D01*
X146677351Y-44443764D01*
X146675151Y-44453435D01*
X146674140Y-44455878D01*
X146673791Y-44459416D01*
X146673004Y-44462880D01*
X146673191Y-44465513D01*
X146672219Y-44475387D01*
X146561108Y-44475387D01*
X146561108Y-43930943D01*
X147983330Y-43930943D01*
X147983330Y-47019831D01*
G37*
G36*
X145443330Y-46734117D02*
G01*
X144021108Y-46734117D01*
X144021108Y-46094435D01*
X144132219Y-46094435D01*
X144132219Y-46332530D01*
X144134140Y-46352039D01*
X144135515Y-46355359D01*
X144135770Y-46358943D01*
X144142776Y-46377251D01*
X144190395Y-46472489D01*
X144195680Y-46480885D01*
X144196691Y-46483325D01*
X144198944Y-46486071D01*
X144200838Y-46489079D01*
X144202832Y-46490808D01*
X144209127Y-46498479D01*
X144256746Y-46546097D01*
X144264412Y-46552389D01*
X144266145Y-46554387D01*
X144269153Y-46556280D01*
X144271899Y-46558534D01*
X144274339Y-46559544D01*
X144282736Y-46564830D01*
X144377973Y-46612449D01*
X144396282Y-46619455D01*
X144399865Y-46619709D01*
X144403186Y-46621085D01*
X144422695Y-46623006D01*
X144517933Y-46623006D01*
X144537442Y-46621085D01*
X144540762Y-46619709D01*
X144544346Y-46619455D01*
X144562654Y-46612449D01*
X144657892Y-46564830D01*
X144666288Y-46559544D01*
X144668728Y-46558534D01*
X144671474Y-46556280D01*
X144674482Y-46554387D01*
X144676211Y-46552392D01*
X144683882Y-46546098D01*
X144731500Y-46498479D01*
X144737792Y-46490812D01*
X144739790Y-46489080D01*
X144741683Y-46486071D01*
X144743937Y-46483326D01*
X144744947Y-46480885D01*
X144750233Y-46472489D01*
X144797852Y-46377252D01*
X144798398Y-46375823D01*
X144798828Y-46375244D01*
X144801749Y-46367067D01*
X144804858Y-46358943D01*
X144804909Y-46358222D01*
X144805423Y-46356784D01*
X144850379Y-46176958D01*
X144885833Y-46106051D01*
X144910501Y-46081382D01*
X144970111Y-46051578D01*
X145018135Y-46051578D01*
X145077746Y-46081384D01*
X145102414Y-46106051D01*
X145132219Y-46165661D01*
X145132219Y-46363922D01*
X145089732Y-46491383D01*
X145085385Y-46510499D01*
X145088151Y-46549419D01*
X145105601Y-46584318D01*
X145135077Y-46609883D01*
X145172093Y-46622221D01*
X145211013Y-46619455D01*
X145245912Y-46602005D01*
X145271477Y-46572529D01*
X145279468Y-46554629D01*
X145327087Y-46411772D01*
X145329286Y-46402099D01*
X145330298Y-46399658D01*
X145330646Y-46396120D01*
X145331434Y-46392657D01*
X145331246Y-46390022D01*
X145332219Y-46380149D01*
X145332219Y-46142054D01*
X145330298Y-46122545D01*
X145328922Y-46119224D01*
X145328668Y-46115641D01*
X145321662Y-46097332D01*
X145274043Y-46002095D01*
X145268757Y-45993698D01*
X145267747Y-45991258D01*
X145265493Y-45988512D01*
X145263600Y-45985504D01*
X145261603Y-45983772D01*
X145255310Y-45976104D01*
X145207690Y-45928486D01*
X145200020Y-45922191D01*
X145198291Y-45920197D01*
X145195286Y-45918305D01*
X145192537Y-45916049D01*
X145190093Y-45915037D01*
X145181701Y-45909754D01*
X145086463Y-45862135D01*
X145068155Y-45855129D01*
X145064571Y-45854874D01*
X145061251Y-45853499D01*
X145041742Y-45851578D01*
X144946504Y-45851578D01*
X144926995Y-45853499D01*
X144923674Y-45854874D01*
X144920091Y-45855129D01*
X144901782Y-45862135D01*
X144806545Y-45909754D01*
X144798148Y-45915039D01*
X144795708Y-45916050D01*
X144792962Y-45918303D01*
X144789954Y-45920197D01*
X144788221Y-45922194D01*
X144780555Y-45928487D01*
X144732936Y-45976105D01*
X144726641Y-45983775D01*
X144724647Y-45985505D01*
X144722753Y-45988512D01*
X144720500Y-45991259D01*
X144719489Y-45993698D01*
X144714204Y-46002095D01*
X144666585Y-46097333D01*
X144666039Y-46098759D01*
X144665609Y-46099340D01*
X144662687Y-46107516D01*
X144659579Y-46115641D01*
X144659527Y-46116363D01*
X144659014Y-46117801D01*
X144614057Y-46297625D01*
X144578604Y-46368532D01*
X144553935Y-46393200D01*
X144494326Y-46423006D01*
X144446302Y-46423006D01*
X144386692Y-46393201D01*
X144362024Y-46368532D01*
X144332219Y-46308922D01*
X144332219Y-46110662D01*
X144374706Y-45983201D01*
X144379053Y-45964086D01*
X144376287Y-45925166D01*
X144358837Y-45890267D01*
X144329361Y-45864702D01*
X144292345Y-45852363D01*
X144253425Y-45855130D01*
X144218526Y-45872579D01*
X144192961Y-45902055D01*
X144184970Y-45919956D01*
X144137351Y-46062812D01*
X144135151Y-46072483D01*
X144134140Y-46074926D01*
X144133791Y-46078464D01*
X144133004Y-46081928D01*
X144133191Y-46084561D01*
X144132219Y-46094435D01*
X144021108Y-46094435D01*
X144021108Y-45142054D01*
X144132219Y-45142054D01*
X144132219Y-45237292D01*
X144133191Y-45247165D01*
X144133004Y-45249799D01*
X144133791Y-45253262D01*
X144134140Y-45256801D01*
X144135151Y-45259243D01*
X144137351Y-45268915D01*
X144184970Y-45411771D01*
X144192961Y-45429672D01*
X144195316Y-45432387D01*
X144196691Y-45435706D01*
X144209127Y-45450860D01*
X144304365Y-45546098D01*
X144312031Y-45552389D01*
X144313764Y-45554387D01*
X144316775Y-45556282D01*
X144319519Y-45558534D01*
X144321956Y-45559543D01*
X144330355Y-45564830D01*
X144425592Y-45612449D01*
X144427020Y-45612995D01*
X144427600Y-45613425D01*
X144435776Y-45616346D01*
X144443901Y-45619455D01*
X144444621Y-45619506D01*
X144446060Y-45620020D01*
X144636536Y-45667639D01*
X144639917Y-45668139D01*
X144641281Y-45668704D01*
X144648631Y-45669427D01*
X144655929Y-45670507D01*
X144657387Y-45670289D01*
X144660790Y-45670625D01*
X144803647Y-45670625D01*
X144807049Y-45670289D01*
X144808508Y-45670507D01*
X144815805Y-45669427D01*
X144823156Y-45668704D01*
X144824519Y-45668139D01*
X144827901Y-45667639D01*
X145018376Y-45620020D01*
X145019813Y-45619506D01*
X145020536Y-45619455D01*
X145028660Y-45616346D01*
X145036837Y-45613425D01*
X145037417Y-45612994D01*
X145038844Y-45612449D01*
X145134082Y-45564830D01*
X145142474Y-45559547D01*
X145144918Y-45558535D01*
X145147667Y-45556278D01*
X145150672Y-45554387D01*
X145152401Y-45552392D01*
X145160071Y-45546098D01*
X145255311Y-45450860D01*
X145267747Y-45435707D01*
X145269122Y-45432387D01*
X145271477Y-45429672D01*
X145279468Y-45411772D01*
X145327087Y-45268915D01*
X145329286Y-45259242D01*
X145330298Y-45256801D01*
X145330646Y-45253263D01*
X145331434Y-45249800D01*
X145331246Y-45247165D01*
X145332219Y-45237292D01*
X145332219Y-45142054D01*
X145331246Y-45132180D01*
X145331434Y-45129546D01*
X145330646Y-45126082D01*
X145330298Y-45122545D01*
X145329286Y-45120103D01*
X145327087Y-45110431D01*
X145279468Y-44967574D01*
X145271477Y-44949674D01*
X145269122Y-44946958D01*
X145267747Y-44943639D01*
X145255310Y-44928485D01*
X145207690Y-44880867D01*
X145192537Y-44868430D01*
X145156488Y-44853499D01*
X145117470Y-44853500D01*
X145081422Y-44868431D01*
X145053832Y-44896021D01*
X145038901Y-44932070D01*
X145038902Y-44971088D01*
X145053833Y-45007136D01*
X145066270Y-45022289D01*
X145097197Y-45053215D01*
X145132219Y-45158280D01*
X145132219Y-45221065D01*
X145097197Y-45326130D01*
X145030127Y-45393200D01*
X144959218Y-45428654D01*
X144791337Y-45470625D01*
X144673099Y-45470625D01*
X144505218Y-45428654D01*
X144434313Y-45393202D01*
X144367240Y-45326129D01*
X144332219Y-45221065D01*
X144332219Y-45158281D01*
X144367240Y-45053215D01*
X144398167Y-45022289D01*
X144410604Y-45007136D01*
X144425535Y-44971087D01*
X144425535Y-44932069D01*
X144410604Y-44896021D01*
X144383014Y-44868431D01*
X144346966Y-44853500D01*
X144307948Y-44853500D01*
X144271899Y-44868431D01*
X144256746Y-44880868D01*
X144209127Y-44928486D01*
X144196691Y-44943640D01*
X144195316Y-44946958D01*
X144192961Y-44949674D01*
X144184970Y-44967575D01*
X144137351Y-45110431D01*
X144135151Y-45120102D01*
X144134140Y-45122545D01*
X144133791Y-45126083D01*
X144133004Y-45129547D01*
X144133191Y-45132180D01*
X144132219Y-45142054D01*
X144021108Y-45142054D01*
X144021108Y-44503497D01*
X144134140Y-44503497D01*
X144134140Y-44542515D01*
X144149072Y-44578563D01*
X144176662Y-44606153D01*
X144212710Y-44621085D01*
X144232219Y-44623006D01*
X145232219Y-44623006D01*
X145251728Y-44621085D01*
X145287776Y-44606153D01*
X145315366Y-44578563D01*
X145330298Y-44542515D01*
X145332219Y-44523006D01*
X145332219Y-44046816D01*
X145330298Y-44027307D01*
X145315366Y-43991259D01*
X145287776Y-43963669D01*
X145251728Y-43948737D01*
X145212710Y-43948737D01*
X145176662Y-43963669D01*
X145149072Y-43991259D01*
X145134140Y-44027307D01*
X145132219Y-44046816D01*
X145132219Y-44423006D01*
X144232219Y-44423006D01*
X144212710Y-44424927D01*
X144176662Y-44439859D01*
X144149072Y-44467449D01*
X144134140Y-44503497D01*
X144021108Y-44503497D01*
X144021108Y-43837626D01*
X145443330Y-43837626D01*
X145443330Y-46734117D01*
G37*
G36*
X142419218Y-45141167D02*
G01*
X142490127Y-45176621D01*
X142557197Y-45243691D01*
X142592219Y-45348756D01*
X142592219Y-45470625D01*
X141792219Y-45470625D01*
X141792219Y-45348757D01*
X141827240Y-45243692D01*
X141894313Y-45176620D01*
X141965218Y-45141167D01*
X142133099Y-45099197D01*
X142251337Y-45099197D01*
X142419218Y-45141167D01*
G37*
G36*
X142306504Y-44479501D02*
G01*
X142008446Y-44380149D01*
X142306504Y-44280796D01*
X142306504Y-44479501D01*
G37*
G36*
X142903330Y-46781736D02*
G01*
X141481108Y-46781736D01*
X141481108Y-46142054D01*
X141592219Y-46142054D01*
X141592219Y-46380149D01*
X141594140Y-46399658D01*
X141595515Y-46402978D01*
X141595770Y-46406562D01*
X141602776Y-46424870D01*
X141650395Y-46520108D01*
X141655680Y-46528504D01*
X141656691Y-46530944D01*
X141658944Y-46533690D01*
X141660838Y-46536698D01*
X141662832Y-46538427D01*
X141669127Y-46546098D01*
X141716746Y-46593716D01*
X141724412Y-46600008D01*
X141726145Y-46602006D01*
X141729153Y-46603899D01*
X141731899Y-46606153D01*
X141734339Y-46607163D01*
X141742736Y-46612449D01*
X141837973Y-46660068D01*
X141856282Y-46667074D01*
X141859865Y-46667328D01*
X141863186Y-46668704D01*
X141882695Y-46670625D01*
X141977933Y-46670625D01*
X141997442Y-46668704D01*
X142000762Y-46667328D01*
X142004346Y-46667074D01*
X142022654Y-46660068D01*
X142117892Y-46612449D01*
X142126288Y-46607163D01*
X142128728Y-46606153D01*
X142131474Y-46603899D01*
X142134482Y-46602006D01*
X142136211Y-46600011D01*
X142143882Y-46593717D01*
X142191500Y-46546098D01*
X142197792Y-46538431D01*
X142199790Y-46536699D01*
X142201683Y-46533690D01*
X142203937Y-46530945D01*
X142204947Y-46528504D01*
X142210233Y-46520108D01*
X142257852Y-46424871D01*
X142258398Y-46423442D01*
X142258828Y-46422863D01*
X142261749Y-46414686D01*
X142264858Y-46406562D01*
X142264909Y-46405841D01*
X142265423Y-46404403D01*
X142310379Y-46224577D01*
X142345833Y-46153670D01*
X142370501Y-46129001D01*
X142430111Y-46099197D01*
X142478135Y-46099197D01*
X142537746Y-46129003D01*
X142562414Y-46153670D01*
X142592219Y-46213280D01*
X142592219Y-46411541D01*
X142549732Y-46539002D01*
X142545385Y-46558118D01*
X142548151Y-46597038D01*
X142565601Y-46631937D01*
X142595077Y-46657502D01*
X142632093Y-46669840D01*
X142671013Y-46667074D01*
X142705912Y-46649624D01*
X142731477Y-46620148D01*
X142739468Y-46602248D01*
X142787087Y-46459391D01*
X142789286Y-46449718D01*
X142790298Y-46447277D01*
X142790646Y-46443739D01*
X142791434Y-46440276D01*
X142791246Y-46437641D01*
X142792219Y-46427768D01*
X142792219Y-46189673D01*
X142790298Y-46170164D01*
X142788922Y-46166843D01*
X142788668Y-46163260D01*
X142781662Y-46144951D01*
X142734043Y-46049714D01*
X142728757Y-46041317D01*
X142727747Y-46038877D01*
X142725493Y-46036131D01*
X142723600Y-46033123D01*
X142721603Y-46031391D01*
X142715310Y-46023723D01*
X142667690Y-45976105D01*
X142660020Y-45969810D01*
X142658291Y-45967816D01*
X142655286Y-45965924D01*
X142652537Y-45963668D01*
X142650093Y-45962656D01*
X142641701Y-45957373D01*
X142546463Y-45909754D01*
X142528155Y-45902748D01*
X142524571Y-45902493D01*
X142521251Y-45901118D01*
X142501742Y-45899197D01*
X142406504Y-45899197D01*
X142386995Y-45901118D01*
X142383674Y-45902493D01*
X142380091Y-45902748D01*
X142361782Y-45909754D01*
X142266545Y-45957373D01*
X142258148Y-45962658D01*
X142255708Y-45963669D01*
X142252962Y-45965922D01*
X142249954Y-45967816D01*
X142248221Y-45969813D01*
X142240555Y-45976106D01*
X142192936Y-46023724D01*
X142186641Y-46031394D01*
X142184647Y-46033124D01*
X142182753Y-46036131D01*
X142180500Y-46038878D01*
X142179489Y-46041317D01*
X142174204Y-46049714D01*
X142126585Y-46144952D01*
X142126039Y-46146378D01*
X142125609Y-46146959D01*
X142122687Y-46155135D01*
X142119579Y-46163260D01*
X142119527Y-46163982D01*
X142119014Y-46165420D01*
X142074057Y-46345244D01*
X142038604Y-46416151D01*
X142013935Y-46440819D01*
X141954326Y-46470625D01*
X141906302Y-46470625D01*
X141846692Y-46440820D01*
X141822024Y-46416151D01*
X141792219Y-46356541D01*
X141792219Y-46158281D01*
X141834706Y-46030820D01*
X141839053Y-46011705D01*
X141836287Y-45972785D01*
X141818837Y-45937886D01*
X141789361Y-45912321D01*
X141752345Y-45899982D01*
X141713425Y-45902749D01*
X141678526Y-45920198D01*
X141652961Y-45949674D01*
X141644970Y-45967575D01*
X141597351Y-46110431D01*
X141595151Y-46120102D01*
X141594140Y-46122545D01*
X141593791Y-46126083D01*
X141593004Y-46129547D01*
X141593191Y-46132180D01*
X141592219Y-46142054D01*
X141481108Y-46142054D01*
X141481108Y-45332530D01*
X141592219Y-45332530D01*
X141592219Y-45570625D01*
X141594140Y-45590134D01*
X141609072Y-45626182D01*
X141636662Y-45653772D01*
X141672710Y-45668704D01*
X141692219Y-45670625D01*
X142692219Y-45670625D01*
X142711728Y-45668704D01*
X142747776Y-45653772D01*
X142775366Y-45626182D01*
X142790298Y-45590134D01*
X142792219Y-45570625D01*
X142792219Y-45332530D01*
X142791246Y-45322656D01*
X142791434Y-45320022D01*
X142790646Y-45316558D01*
X142790298Y-45313021D01*
X142789286Y-45310579D01*
X142787087Y-45300907D01*
X142739468Y-45158050D01*
X142731477Y-45140150D01*
X142729122Y-45137434D01*
X142727747Y-45134115D01*
X142715311Y-45118962D01*
X142620071Y-45023724D01*
X142612401Y-45017429D01*
X142610672Y-45015435D01*
X142607667Y-45013543D01*
X142604918Y-45011287D01*
X142602474Y-45010274D01*
X142594082Y-45004992D01*
X142498844Y-44957373D01*
X142497417Y-44956827D01*
X142496837Y-44956397D01*
X142488660Y-44953475D01*
X142480536Y-44950367D01*
X142479813Y-44950315D01*
X142478376Y-44949802D01*
X142287901Y-44902183D01*
X142284519Y-44901682D01*
X142283156Y-44901118D01*
X142275805Y-44900394D01*
X142268508Y-44899315D01*
X142267049Y-44899532D01*
X142263647Y-44899197D01*
X142120790Y-44899197D01*
X142117387Y-44899532D01*
X142115929Y-44899315D01*
X142108631Y-44900394D01*
X142101281Y-44901118D01*
X142099917Y-44901682D01*
X142096536Y-44902183D01*
X141906060Y-44949802D01*
X141904621Y-44950315D01*
X141903901Y-44950367D01*
X141895776Y-44953475D01*
X141887600Y-44956397D01*
X141887020Y-44956826D01*
X141885592Y-44957373D01*
X141790355Y-45004992D01*
X141781956Y-45010278D01*
X141779519Y-45011288D01*
X141776775Y-45013539D01*
X141773764Y-45015435D01*
X141772031Y-45017432D01*
X141764365Y-45023724D01*
X141669127Y-45118962D01*
X141656691Y-45134116D01*
X141655316Y-45137434D01*
X141652961Y-45140150D01*
X141644970Y-45158051D01*
X141597351Y-45300907D01*
X141595151Y-45310578D01*
X141594140Y-45313021D01*
X141593791Y-45316559D01*
X141593004Y-45320023D01*
X141593191Y-45322656D01*
X141592219Y-45332530D01*
X141481108Y-45332530D01*
X141481108Y-44367642D01*
X141593004Y-44367642D01*
X141593892Y-44380149D01*
X141593004Y-44392656D01*
X141595263Y-44399434D01*
X141595770Y-44406562D01*
X141601376Y-44417774D01*
X141605342Y-44429672D01*
X141610025Y-44435071D01*
X141613220Y-44441461D01*
X141622691Y-44449676D01*
X141630907Y-44459148D01*
X141637296Y-44462342D01*
X141642696Y-44467026D01*
X141660596Y-44475017D01*
X142660596Y-44808350D01*
X142679711Y-44812697D01*
X142718631Y-44809931D01*
X142753530Y-44792481D01*
X142779095Y-44763005D01*
X142791434Y-44725989D01*
X142788667Y-44687069D01*
X142771218Y-44652170D01*
X142741742Y-44626605D01*
X142723841Y-44618614D01*
X142506504Y-44546168D01*
X142506504Y-44214129D01*
X142723841Y-44141684D01*
X142741742Y-44133693D01*
X142771218Y-44108128D01*
X142788667Y-44073229D01*
X142791434Y-44034309D01*
X142779095Y-43997293D01*
X142753530Y-43967817D01*
X142718631Y-43950367D01*
X142679711Y-43947601D01*
X142660596Y-43951948D01*
X141660596Y-44285281D01*
X141642696Y-44293272D01*
X141637296Y-44297955D01*
X141630907Y-44301150D01*
X141622691Y-44310621D01*
X141613220Y-44318837D01*
X141610025Y-44325226D01*
X141605342Y-44330626D01*
X141601376Y-44342523D01*
X141595770Y-44353736D01*
X141595263Y-44360863D01*
X141593004Y-44367642D01*
X141481108Y-44367642D01*
X141481108Y-43836490D01*
X142903330Y-43836490D01*
X142903330Y-46781736D01*
G37*
G36*
X140363330Y-47256005D02*
G01*
X138941108Y-47256005D01*
X138941108Y-46427768D01*
X139052219Y-46427768D01*
X139052219Y-47046815D01*
X139054140Y-47066324D01*
X139069072Y-47102372D01*
X139096662Y-47129962D01*
X139132710Y-47144894D01*
X139171728Y-47144894D01*
X139207776Y-47129962D01*
X139235366Y-47102372D01*
X139250298Y-47066324D01*
X139252219Y-47046815D01*
X139252219Y-46648144D01*
X139467321Y-46836359D01*
X139475754Y-46842388D01*
X139477614Y-46844248D01*
X139479377Y-46844978D01*
X139483268Y-46847760D01*
X139498656Y-46852964D01*
X139513662Y-46859180D01*
X139517036Y-46859180D01*
X139520229Y-46860260D01*
X139536432Y-46859180D01*
X139552680Y-46859180D01*
X139555795Y-46857889D01*
X139559161Y-46857665D01*
X139573726Y-46850462D01*
X139588728Y-46844248D01*
X139591111Y-46841864D01*
X139594136Y-46840369D01*
X139604840Y-46828135D01*
X139616318Y-46816658D01*
X139617607Y-46813544D01*
X139619830Y-46811005D01*
X139625035Y-46795613D01*
X139631250Y-46780610D01*
X139631718Y-46775850D01*
X139632330Y-46774043D01*
X139632155Y-46771418D01*
X139633171Y-46761101D01*
X139633171Y-46641851D01*
X139662976Y-46582241D01*
X139687644Y-46557572D01*
X139747254Y-46527768D01*
X139938135Y-46527768D01*
X139997746Y-46557574D01*
X140022414Y-46582241D01*
X140052219Y-46641851D01*
X140052219Y-46880351D01*
X140022414Y-46939960D01*
X139986270Y-46976104D01*
X139973833Y-46991257D01*
X139958902Y-47027305D01*
X139958901Y-47066323D01*
X139973832Y-47102372D01*
X140001422Y-47129962D01*
X140037470Y-47144893D01*
X140076488Y-47144894D01*
X140112537Y-47129963D01*
X140127690Y-47117526D01*
X140175310Y-47069908D01*
X140181603Y-47062239D01*
X140183600Y-47060508D01*
X140185493Y-47057499D01*
X140187747Y-47054754D01*
X140188757Y-47052313D01*
X140194043Y-47043917D01*
X140241662Y-46948680D01*
X140248668Y-46930371D01*
X140248922Y-46926787D01*
X140250298Y-46923467D01*
X140252219Y-46903958D01*
X140252219Y-46618244D01*
X140250298Y-46598735D01*
X140248922Y-46595414D01*
X140248668Y-46591831D01*
X140241662Y-46573522D01*
X140194043Y-46478285D01*
X140188757Y-46469888D01*
X140187747Y-46467448D01*
X140185493Y-46464702D01*
X140183600Y-46461694D01*
X140181603Y-46459962D01*
X140175310Y-46452294D01*
X140127690Y-46404676D01*
X140120020Y-46398381D01*
X140118291Y-46396387D01*
X140115286Y-46394495D01*
X140112537Y-46392239D01*
X140110093Y-46391227D01*
X140101701Y-46385944D01*
X140006463Y-46338325D01*
X139988155Y-46331319D01*
X139984571Y-46331064D01*
X139981251Y-46329689D01*
X139961742Y-46327768D01*
X139723647Y-46327768D01*
X139704138Y-46329689D01*
X139700817Y-46331064D01*
X139697234Y-46331319D01*
X139678925Y-46338325D01*
X139583688Y-46385944D01*
X139575291Y-46391229D01*
X139572851Y-46392240D01*
X139570105Y-46394493D01*
X139567097Y-46396387D01*
X139565364Y-46398384D01*
X139557698Y-46404677D01*
X139510079Y-46452295D01*
X139503784Y-46459965D01*
X139501790Y-46461695D01*
X139499896Y-46464702D01*
X139497643Y-46467449D01*
X139496632Y-46469888D01*
X139491347Y-46478285D01*
X139451923Y-46557132D01*
X139218069Y-46352510D01*
X139209635Y-46346480D01*
X139207776Y-46344621D01*
X139206012Y-46343890D01*
X139202122Y-46341109D01*
X139186733Y-46335904D01*
X139171728Y-46329689D01*
X139168354Y-46329689D01*
X139165161Y-46328609D01*
X139148958Y-46329689D01*
X139132710Y-46329689D01*
X139129594Y-46330979D01*
X139126229Y-46331204D01*
X139111668Y-46338404D01*
X139096662Y-46344621D01*
X139094277Y-46347005D01*
X139091254Y-46348501D01*
X139080556Y-46360726D01*
X139069072Y-46372211D01*
X139067781Y-46375325D01*
X139065560Y-46377865D01*
X139060355Y-46393253D01*
X139054140Y-46408259D01*
X139053671Y-46413018D01*
X139053060Y-46414826D01*
X139053234Y-46417450D01*
X139052219Y-46427768D01*
X138941108Y-46427768D01*
X138941108Y-45979687D01*
X139958901Y-45979687D01*
X139958901Y-46018705D01*
X139960385Y-46022288D01*
X139973832Y-46054753D01*
X139973833Y-46054754D01*
X139986270Y-46069907D01*
X140033890Y-46117526D01*
X140049043Y-46129963D01*
X140074533Y-46140520D01*
X140085091Y-46144894D01*
X140085092Y-46144894D01*
X140124109Y-46144894D01*
X140145226Y-46136146D01*
X140160158Y-46129962D01*
X140160162Y-46129957D01*
X140175311Y-46117526D01*
X140222929Y-46069907D01*
X140235366Y-46054754D01*
X140246735Y-46027306D01*
X140250298Y-46018705D01*
X140250298Y-45979687D01*
X140235366Y-45943639D01*
X140235366Y-45943638D01*
X140222929Y-45928485D01*
X140175311Y-45880866D01*
X140160162Y-45868434D01*
X140160158Y-45868430D01*
X140145226Y-45862245D01*
X140124109Y-45853498D01*
X140085091Y-45853498D01*
X140074533Y-45857871D01*
X140049043Y-45868429D01*
X140033890Y-45880866D01*
X139986270Y-45928485D01*
X139973833Y-45943638D01*
X139973832Y-45943639D01*
X139963274Y-45969129D01*
X139958901Y-45979687D01*
X138941108Y-45979687D01*
X138941108Y-44999197D01*
X139052219Y-44999197D01*
X139052219Y-45618244D01*
X139054140Y-45637753D01*
X139069072Y-45673801D01*
X139096662Y-45701391D01*
X139132710Y-45716323D01*
X139171728Y-45716323D01*
X139207776Y-45701391D01*
X139235366Y-45673801D01*
X139250298Y-45637753D01*
X139252219Y-45618244D01*
X139252219Y-45219573D01*
X139467321Y-45407788D01*
X139475754Y-45413817D01*
X139477614Y-45415677D01*
X139479377Y-45416407D01*
X139483268Y-45419189D01*
X139498656Y-45424393D01*
X139513662Y-45430609D01*
X139517036Y-45430609D01*
X139520229Y-45431689D01*
X139536432Y-45430609D01*
X139552680Y-45430609D01*
X139555795Y-45429318D01*
X139559161Y-45429094D01*
X139573726Y-45421891D01*
X139588728Y-45415677D01*
X139591111Y-45413293D01*
X139594136Y-45411798D01*
X139604840Y-45399564D01*
X139616318Y-45388087D01*
X139617607Y-45384973D01*
X139619830Y-45382434D01*
X139625035Y-45367042D01*
X139631250Y-45352039D01*
X139631718Y-45347279D01*
X139632330Y-45345472D01*
X139632155Y-45342847D01*
X139633171Y-45332530D01*
X139633171Y-45213280D01*
X139662976Y-45153670D01*
X139687644Y-45129001D01*
X139747254Y-45099197D01*
X139938135Y-45099197D01*
X139997746Y-45129003D01*
X140022414Y-45153670D01*
X140052219Y-45213280D01*
X140052219Y-45451780D01*
X140022414Y-45511389D01*
X139986270Y-45547533D01*
X139973833Y-45562686D01*
X139958902Y-45598734D01*
X139958901Y-45637752D01*
X139973832Y-45673801D01*
X140001422Y-45701391D01*
X140037470Y-45716322D01*
X140076488Y-45716323D01*
X140112537Y-45701392D01*
X140127690Y-45688955D01*
X140175310Y-45641337D01*
X140181603Y-45633668D01*
X140183600Y-45631937D01*
X140185493Y-45628928D01*
X140187747Y-45626183D01*
X140188757Y-45623742D01*
X140194043Y-45615346D01*
X140241662Y-45520109D01*
X140248668Y-45501800D01*
X140248922Y-45498216D01*
X140250298Y-45494896D01*
X140252219Y-45475387D01*
X140252219Y-45189673D01*
X140250298Y-45170164D01*
X140248922Y-45166843D01*
X140248668Y-45163260D01*
X140241662Y-45144951D01*
X140194043Y-45049714D01*
X140188757Y-45041317D01*
X140187747Y-45038877D01*
X140185493Y-45036131D01*
X140183600Y-45033123D01*
X140181603Y-45031391D01*
X140175310Y-45023723D01*
X140127690Y-44976105D01*
X140120020Y-44969810D01*
X140118291Y-44967816D01*
X140115286Y-44965924D01*
X140112537Y-44963668D01*
X140110093Y-44962656D01*
X140101701Y-44957373D01*
X140006463Y-44909754D01*
X139988155Y-44902748D01*
X139984571Y-44902493D01*
X139981251Y-44901118D01*
X139961742Y-44899197D01*
X139723647Y-44899197D01*
X139704138Y-44901118D01*
X139700817Y-44902493D01*
X139697234Y-44902748D01*
X139678925Y-44909754D01*
X139583688Y-44957373D01*
X139575291Y-44962658D01*
X139572851Y-44963669D01*
X139570105Y-44965922D01*
X139567097Y-44967816D01*
X139565364Y-44969813D01*
X139557698Y-44976106D01*
X139510079Y-45023724D01*
X139503784Y-45031394D01*
X139501790Y-45033124D01*
X139499896Y-45036131D01*
X139497643Y-45038878D01*
X139496632Y-45041317D01*
X139491347Y-45049714D01*
X139451923Y-45128561D01*
X139218069Y-44923939D01*
X139209635Y-44917909D01*
X139207776Y-44916050D01*
X139206012Y-44915319D01*
X139202122Y-44912538D01*
X139186733Y-44907333D01*
X139171728Y-44901118D01*
X139168354Y-44901118D01*
X139165161Y-44900038D01*
X139148958Y-44901118D01*
X139132710Y-44901118D01*
X139129594Y-44902408D01*
X139126229Y-44902633D01*
X139111668Y-44909833D01*
X139096662Y-44916050D01*
X139094277Y-44918434D01*
X139091254Y-44919930D01*
X139080556Y-44932155D01*
X139069072Y-44943640D01*
X139067781Y-44946754D01*
X139065560Y-44949294D01*
X139060355Y-44964682D01*
X139054140Y-44979688D01*
X139053671Y-44984447D01*
X139053060Y-44986255D01*
X139053234Y-44988879D01*
X139052219Y-44999197D01*
X138941108Y-44999197D01*
X138941108Y-44034309D01*
X139053004Y-44034309D01*
X139055770Y-44073229D01*
X139073220Y-44108128D01*
X139102696Y-44133693D01*
X139120596Y-44141684D01*
X139835991Y-44380149D01*
X139120596Y-44618614D01*
X139102696Y-44626605D01*
X139073220Y-44652170D01*
X139055770Y-44687069D01*
X139053004Y-44725989D01*
X139065342Y-44763005D01*
X139090907Y-44792481D01*
X139125806Y-44809931D01*
X139164726Y-44812697D01*
X139183842Y-44808350D01*
X140183841Y-44475017D01*
X140201742Y-44467026D01*
X140207143Y-44462341D01*
X140213530Y-44459148D01*
X140221742Y-44449679D01*
X140231218Y-44441461D01*
X140234413Y-44435069D01*
X140239095Y-44429672D01*
X140243061Y-44417774D01*
X140248667Y-44406562D01*
X140249173Y-44399437D01*
X140251434Y-44392656D01*
X140250544Y-44380149D01*
X140251434Y-44367642D01*
X140249173Y-44360860D01*
X140248667Y-44353736D01*
X140243061Y-44342523D01*
X140239095Y-44330626D01*
X140234413Y-44325228D01*
X140231218Y-44318837D01*
X140221742Y-44310618D01*
X140213530Y-44301150D01*
X140207143Y-44297956D01*
X140201742Y-44293272D01*
X140183841Y-44285281D01*
X139183842Y-43951948D01*
X139164726Y-43947601D01*
X139125806Y-43950367D01*
X139090907Y-43967817D01*
X139065342Y-43997293D01*
X139053004Y-44034309D01*
X138941108Y-44034309D01*
X138941108Y-43836490D01*
X140363330Y-43836490D01*
X140363330Y-47256005D01*
G37*
D11*
X143833009Y-66571428D02*
X143833009Y-65619047D01*
X144404438Y-66761904D02*
X142404438Y-66095238D01*
X142404438Y-66095238D02*
X144404438Y-65428571D01*
X144404438Y-64761904D02*
X143071104Y-64761904D01*
X142404438Y-64761904D02*
X142499676Y-64857142D01*
X142499676Y-64857142D02*
X142594914Y-64761904D01*
X142594914Y-64761904D02*
X142499676Y-64666666D01*
X142499676Y-64666666D02*
X142404438Y-64761904D01*
X142404438Y-64761904D02*
X142594914Y-64761904D01*
X144404438Y-63809523D02*
X143071104Y-63809523D01*
X143452057Y-63809523D02*
X143261580Y-63714285D01*
X143261580Y-63714285D02*
X143166342Y-63619047D01*
X143166342Y-63619047D02*
X143071104Y-63428571D01*
X143071104Y-63428571D02*
X143071104Y-63238094D01*
X144309200Y-111476190D02*
X144404438Y-111190476D01*
X144404438Y-111190476D02*
X144404438Y-110714285D01*
X144404438Y-110714285D02*
X144309200Y-110523809D01*
X144309200Y-110523809D02*
X144213961Y-110428571D01*
X144213961Y-110428571D02*
X144023485Y-110333333D01*
X144023485Y-110333333D02*
X143833009Y-110333333D01*
X143833009Y-110333333D02*
X143642533Y-110428571D01*
X143642533Y-110428571D02*
X143547295Y-110523809D01*
X143547295Y-110523809D02*
X143452057Y-110714285D01*
X143452057Y-110714285D02*
X143356819Y-111095238D01*
X143356819Y-111095238D02*
X143261580Y-111285714D01*
X143261580Y-111285714D02*
X143166342Y-111380952D01*
X143166342Y-111380952D02*
X142975866Y-111476190D01*
X142975866Y-111476190D02*
X142785390Y-111476190D01*
X142785390Y-111476190D02*
X142594914Y-111380952D01*
X142594914Y-111380952D02*
X142499676Y-111285714D01*
X142499676Y-111285714D02*
X142404438Y-111095238D01*
X142404438Y-111095238D02*
X142404438Y-110619047D01*
X142404438Y-110619047D02*
X142499676Y-110333333D01*
X144404438Y-109190476D02*
X144309200Y-109380952D01*
X144309200Y-109380952D02*
X144213961Y-109476190D01*
X144213961Y-109476190D02*
X144023485Y-109571428D01*
X144023485Y-109571428D02*
X143452057Y-109571428D01*
X143452057Y-109571428D02*
X143261580Y-109476190D01*
X143261580Y-109476190D02*
X143166342Y-109380952D01*
X143166342Y-109380952D02*
X143071104Y-109190476D01*
X143071104Y-109190476D02*
X143071104Y-108904761D01*
X143071104Y-108904761D02*
X143166342Y-108714285D01*
X143166342Y-108714285D02*
X143261580Y-108619047D01*
X143261580Y-108619047D02*
X143452057Y-108523809D01*
X143452057Y-108523809D02*
X144023485Y-108523809D01*
X144023485Y-108523809D02*
X144213961Y-108619047D01*
X144213961Y-108619047D02*
X144309200Y-108714285D01*
X144309200Y-108714285D02*
X144404438Y-108904761D01*
X144404438Y-108904761D02*
X144404438Y-109190476D01*
X144404438Y-107666666D02*
X143071104Y-107666666D01*
X142404438Y-107666666D02*
X142499676Y-107761904D01*
X142499676Y-107761904D02*
X142594914Y-107666666D01*
X142594914Y-107666666D02*
X142499676Y-107571428D01*
X142499676Y-107571428D02*
X142404438Y-107666666D01*
X142404438Y-107666666D02*
X142594914Y-107666666D01*
X144404438Y-106428571D02*
X144309200Y-106619047D01*
X144309200Y-106619047D02*
X144118723Y-106714285D01*
X144118723Y-106714285D02*
X142404438Y-106714285D01*
D12*
X129500000Y-76000000D02*
X157500000Y-76000000D01*
X157500000Y-78000000D01*
X129500000Y-78000000D01*
X129500000Y-76000000D01*
G36*
X129740115Y-75999999D02*
G01*
X130036937Y-76296822D01*
X130333759Y-76000000D01*
X130475180Y-76000000D01*
X130107648Y-76367532D01*
X130744044Y-77003928D01*
X131380440Y-76367532D01*
X131012907Y-75999999D01*
X131154328Y-75999999D01*
X131451151Y-76296822D01*
X131747972Y-76000000D01*
X131889393Y-76000000D01*
X131521861Y-76367532D01*
X132158257Y-77003928D01*
X132794654Y-76367532D01*
X132427121Y-75999999D01*
X132568542Y-75999999D01*
X132865364Y-76296822D01*
X133162186Y-76000000D01*
X133303607Y-76000000D01*
X132936075Y-76367532D01*
X133572471Y-77003928D01*
X134208867Y-76367532D01*
X133841334Y-75999999D01*
X133982756Y-75999999D01*
X134279578Y-76296822D01*
X134576399Y-76000000D01*
X134717821Y-76000000D01*
X134350288Y-76367532D01*
X134986685Y-77003928D01*
X135623081Y-76367532D01*
X135255548Y-75999999D01*
X135396969Y-75999999D01*
X135693791Y-76296822D01*
X135990613Y-76000000D01*
X136132034Y-76000000D01*
X135764502Y-76367532D01*
X136400898Y-77003928D01*
X137037294Y-76367532D01*
X136669761Y-75999999D01*
X136811183Y-75999999D01*
X137108005Y-76296822D01*
X137404826Y-76000000D01*
X137546248Y-76000000D01*
X137178716Y-76367532D01*
X137815112Y-77003928D01*
X138451508Y-76367532D01*
X138083975Y-75999999D01*
X138225396Y-75999999D01*
X138522218Y-76296822D01*
X138819040Y-76000000D01*
X138960461Y-76000000D01*
X138592929Y-76367532D01*
X139229325Y-77003928D01*
X139865721Y-76367532D01*
X139498188Y-75999999D01*
X139639610Y-75999999D01*
X139936432Y-76296822D01*
X140233254Y-76000000D01*
X140374675Y-76000000D01*
X140007143Y-76367532D01*
X140643539Y-77003928D01*
X141279935Y-76367532D01*
X140912402Y-75999999D01*
X141053823Y-75999999D01*
X141350646Y-76296822D01*
X141647467Y-76000000D01*
X141788888Y-76000000D01*
X141421356Y-76367532D01*
X142057752Y-77003928D01*
X142694148Y-76367532D01*
X142326616Y-75999999D01*
X142468037Y-75999999D01*
X142764859Y-76296822D01*
X143061681Y-76000000D01*
X143203102Y-76000000D01*
X142835570Y-76367532D01*
X143471966Y-77003928D01*
X144108362Y-76367532D01*
X143740829Y-75999999D01*
X143882250Y-75999999D01*
X144179073Y-76296822D01*
X144475895Y-75999999D01*
X144617316Y-75999999D01*
X144249783Y-76367532D01*
X144886179Y-77003928D01*
X145522576Y-76367532D01*
X145155043Y-75999999D01*
X145296464Y-75999999D01*
X145593286Y-76296822D01*
X145890108Y-75999999D01*
X146031530Y-75999999D01*
X145663997Y-76367532D01*
X146300393Y-77003928D01*
X146936789Y-76367532D01*
X146569256Y-75999999D01*
X146710678Y-75999999D01*
X147007500Y-76296822D01*
X147304322Y-75999999D01*
X147445743Y-75999999D01*
X147078210Y-76367532D01*
X147714607Y-77003928D01*
X148351003Y-76367532D01*
X147983470Y-75999999D01*
X148124891Y-75999999D01*
X148421713Y-76296822D01*
X148718536Y-75999999D01*
X148859957Y-75999999D01*
X148492424Y-76367532D01*
X149128820Y-77003928D01*
X149765216Y-76367532D01*
X149397683Y-75999999D01*
X149539105Y-75999999D01*
X149835927Y-76296822D01*
X150132749Y-75999999D01*
X150274171Y-75999999D01*
X149906638Y-76367532D01*
X150543034Y-77003928D01*
X151179430Y-76367532D01*
X150811897Y-75999999D01*
X150953318Y-75999999D01*
X151250140Y-76296822D01*
X151546963Y-75999999D01*
X151688384Y-75999999D01*
X151320851Y-76367532D01*
X151957247Y-77003928D01*
X152593643Y-76367532D01*
X152226110Y-75999999D01*
X152367532Y-75999999D01*
X152664354Y-76296822D01*
X152961176Y-75999999D01*
X153102598Y-75999999D01*
X152735065Y-76367532D01*
X153371461Y-77003928D01*
X154007857Y-76367532D01*
X153640324Y-75999999D01*
X153781745Y-75999999D01*
X154078568Y-76296822D01*
X154375390Y-75999999D01*
X154516811Y-75999999D01*
X154149278Y-76367532D01*
X154785674Y-77003928D01*
X155422071Y-76367532D01*
X155054538Y-75999999D01*
X155195959Y-75999999D01*
X155492781Y-76296822D01*
X155789603Y-75999999D01*
X155931025Y-75999999D01*
X155563492Y-76367532D01*
X156199888Y-77003928D01*
X156836284Y-76367532D01*
X156468751Y-75999999D01*
X156610173Y-75999999D01*
X156906995Y-76296822D01*
X157203817Y-75999999D01*
X157345238Y-75999999D01*
X156977705Y-76367532D01*
X157500000Y-76889827D01*
X157500000Y-77031248D01*
X156906995Y-76438243D01*
X156270599Y-77074639D01*
X156906995Y-77711035D01*
X157500000Y-77118030D01*
X157500000Y-77259451D01*
X156977705Y-77781746D01*
X157195960Y-78000000D01*
X157054538Y-78000000D01*
X156906995Y-77852457D01*
X156759451Y-78000000D01*
X156618030Y-78000000D01*
X156836284Y-77781746D01*
X156199888Y-77145350D01*
X155563492Y-77781746D01*
X155781746Y-78000000D01*
X155640325Y-78000000D01*
X155492781Y-77852457D01*
X155345238Y-78000000D01*
X155203816Y-78000000D01*
X155422071Y-77781746D01*
X155492781Y-77711035D01*
X156129177Y-77074639D01*
X155492781Y-76438243D01*
X154856385Y-77074639D01*
X155492781Y-77711035D01*
X155422071Y-77781746D01*
X154785674Y-77145350D01*
X154149278Y-77781746D01*
X154367532Y-78000000D01*
X154226111Y-78000000D01*
X154078568Y-77852457D01*
X153931024Y-78000000D01*
X153789603Y-78000000D01*
X154007857Y-77781746D01*
X154078568Y-77711035D01*
X154714964Y-77074639D01*
X154078568Y-76438243D01*
X153442172Y-77074639D01*
X154078568Y-77711035D01*
X154007857Y-77781746D01*
X153371461Y-77145350D01*
X152735065Y-77781746D01*
X152953319Y-78000000D01*
X152811898Y-78000000D01*
X152664354Y-77852457D01*
X152516811Y-78000000D01*
X152375389Y-78000000D01*
X152593643Y-77781746D01*
X152664354Y-77711035D01*
X153300750Y-77074639D01*
X152664354Y-76438243D01*
X152027958Y-77074639D01*
X152664354Y-77711035D01*
X152593643Y-77781746D01*
X151957247Y-77145350D01*
X151320851Y-77781746D01*
X151539105Y-78000000D01*
X151397684Y-78000000D01*
X151250140Y-77852457D01*
X151102597Y-78000000D01*
X150961176Y-78000000D01*
X151179430Y-77781746D01*
X151250140Y-77711035D01*
X151886537Y-77074639D01*
X151250140Y-76438243D01*
X150613744Y-77074639D01*
X151250140Y-77711035D01*
X151179430Y-77781746D01*
X150543034Y-77145350D01*
X149906638Y-77781746D01*
X150124892Y-78000000D01*
X149983470Y-78000000D01*
X149835927Y-77852457D01*
X149688383Y-78000000D01*
X149546962Y-78000000D01*
X149765216Y-77781746D01*
X149835927Y-77711035D01*
X150472323Y-77074639D01*
X149835927Y-76438243D01*
X149199531Y-77074639D01*
X149835927Y-77711035D01*
X149765216Y-77781746D01*
X149128820Y-77145350D01*
X148492424Y-77781746D01*
X148710678Y-78000000D01*
X148569257Y-78000000D01*
X148421713Y-77852457D01*
X148274170Y-78000000D01*
X148132749Y-78000000D01*
X148351003Y-77781746D01*
X148421713Y-77711035D01*
X149058109Y-77074639D01*
X148421713Y-76438243D01*
X147785317Y-77074639D01*
X148421713Y-77711035D01*
X148351003Y-77781746D01*
X147714607Y-77145350D01*
X147078210Y-77781746D01*
X147296465Y-78000000D01*
X147155043Y-78000000D01*
X147007500Y-77852457D01*
X146859956Y-78000000D01*
X146718535Y-78000000D01*
X146936789Y-77781746D01*
X147007500Y-77711035D01*
X147643896Y-77074639D01*
X147007500Y-76438243D01*
X146371104Y-77074639D01*
X147007500Y-77711035D01*
X146936789Y-77781746D01*
X146300393Y-77145350D01*
X145663997Y-77781746D01*
X145882251Y-78000000D01*
X145740830Y-78000000D01*
X145593286Y-77852457D01*
X145445743Y-78000000D01*
X145304321Y-78000000D01*
X145522576Y-77781746D01*
X145593286Y-77711035D01*
X146229682Y-77074639D01*
X145593286Y-76438243D01*
X144956890Y-77074639D01*
X145593286Y-77711035D01*
X145522576Y-77781746D01*
X144886179Y-77145350D01*
X144249783Y-77781746D01*
X144468038Y-78000000D01*
X144326616Y-78000000D01*
X144179073Y-77852457D01*
X144031529Y-78000000D01*
X143890108Y-78000000D01*
X144108362Y-77781746D01*
X144179073Y-77711035D01*
X144815469Y-77074639D01*
X144179073Y-76438243D01*
X143542677Y-77074639D01*
X144179073Y-77711035D01*
X144108362Y-77781746D01*
X143471966Y-77145350D01*
X142835570Y-77781746D01*
X143053824Y-78000000D01*
X142912403Y-78000000D01*
X142764859Y-77852457D01*
X142617316Y-78000000D01*
X142475894Y-78000000D01*
X142694148Y-77781746D01*
X142764859Y-77711035D01*
X143401255Y-77074639D01*
X142764859Y-76438243D01*
X142128463Y-77074639D01*
X142764859Y-77711035D01*
X142694148Y-77781746D01*
X142057752Y-77145350D01*
X141421356Y-77781746D01*
X141639610Y-78000000D01*
X141498189Y-78000000D01*
X141350646Y-77852457D01*
X141203102Y-78000000D01*
X141061681Y-78000000D01*
X141279935Y-77781746D01*
X141350646Y-77711035D01*
X141987042Y-77074639D01*
X141350646Y-76438243D01*
X140714249Y-77074639D01*
X141350646Y-77711035D01*
X141279935Y-77781746D01*
X140643539Y-77145350D01*
X140007143Y-77781746D01*
X140225397Y-78000000D01*
X140083975Y-78000000D01*
X139936432Y-77852457D01*
X139788889Y-78000000D01*
X139647467Y-78000000D01*
X139865721Y-77781746D01*
X139936432Y-77711035D01*
X140572828Y-77074639D01*
X139936432Y-76438243D01*
X139300036Y-77074639D01*
X139936432Y-77711035D01*
X139865721Y-77781746D01*
X139229325Y-77145350D01*
X138592929Y-77781746D01*
X138811183Y-78000000D01*
X138669762Y-78000000D01*
X138522218Y-77852457D01*
X138374675Y-78000000D01*
X138233254Y-78000000D01*
X138451508Y-77781746D01*
X138522218Y-77711035D01*
X139158615Y-77074639D01*
X138522218Y-76438243D01*
X137885822Y-77074639D01*
X138522218Y-77711035D01*
X138451508Y-77781746D01*
X137815112Y-77145350D01*
X137178716Y-77781746D01*
X137396970Y-78000000D01*
X137255548Y-78000000D01*
X137108005Y-77852457D01*
X136960461Y-78000000D01*
X136819040Y-78000000D01*
X137037294Y-77781746D01*
X137108005Y-77711035D01*
X137744401Y-77074639D01*
X137108005Y-76438243D01*
X136471609Y-77074639D01*
X137108005Y-77711035D01*
X137037294Y-77781746D01*
X136400898Y-77145350D01*
X135764502Y-77781746D01*
X135982756Y-78000000D01*
X135841335Y-78000000D01*
X135693791Y-77852457D01*
X135546248Y-78000000D01*
X135404826Y-78000000D01*
X135623081Y-77781746D01*
X135693791Y-77711035D01*
X136330187Y-77074639D01*
X135693791Y-76438243D01*
X135057395Y-77074639D01*
X135693791Y-77711035D01*
X135623081Y-77781746D01*
X134986685Y-77145350D01*
X134350288Y-77781746D01*
X134568543Y-78000000D01*
X134427121Y-78000000D01*
X134279578Y-77852457D01*
X134132034Y-78000000D01*
X133990613Y-78000000D01*
X134208867Y-77781746D01*
X134279578Y-77711035D01*
X134915974Y-77074639D01*
X134279578Y-76438243D01*
X133643182Y-77074639D01*
X134279578Y-77711035D01*
X134208867Y-77781746D01*
X133572471Y-77145350D01*
X132936075Y-77781746D01*
X133154329Y-78000000D01*
X133012908Y-78000000D01*
X132865364Y-77852457D01*
X132717821Y-78000000D01*
X132576399Y-78000000D01*
X132794654Y-77781746D01*
X132865364Y-77711035D01*
X133501760Y-77074639D01*
X132865364Y-76438243D01*
X132228968Y-77074639D01*
X132865364Y-77711035D01*
X132794654Y-77781746D01*
X132158257Y-77145350D01*
X131521861Y-77781746D01*
X131740115Y-78000000D01*
X131598694Y-78000000D01*
X131451151Y-77852457D01*
X131303607Y-78000000D01*
X131162186Y-78000000D01*
X131380440Y-77781746D01*
X131451151Y-77711035D01*
X132087547Y-77074639D01*
X131451151Y-76438243D01*
X130814755Y-77074639D01*
X131451151Y-77711035D01*
X131380440Y-77781746D01*
X130744044Y-77145350D01*
X130107648Y-77781746D01*
X130325902Y-78000000D01*
X130184481Y-78000000D01*
X130036937Y-77852457D01*
X129889394Y-78000000D01*
X129747972Y-78000000D01*
X129966226Y-77781746D01*
X129500000Y-77315519D01*
X129500000Y-77174098D01*
X130036937Y-77711035D01*
X130673333Y-77074639D01*
X130036937Y-76438243D01*
X129500000Y-76975180D01*
X129500000Y-76833758D01*
X129966226Y-76367532D01*
X129598693Y-75999999D01*
X129740115Y-75999999D01*
G37*
X141307419Y-54761904D02*
X142116942Y-54761904D01*
X142116942Y-54761904D02*
X142212180Y-54714285D01*
X142212180Y-54714285D02*
X142259800Y-54666666D01*
X142259800Y-54666666D02*
X142307419Y-54571428D01*
X142307419Y-54571428D02*
X142307419Y-54380952D01*
X142307419Y-54380952D02*
X142259800Y-54285714D01*
X142259800Y-54285714D02*
X142212180Y-54238095D01*
X142212180Y-54238095D02*
X142116942Y-54190476D01*
X142116942Y-54190476D02*
X141307419Y-54190476D01*
X141402657Y-53761904D02*
X141355038Y-53714285D01*
X141355038Y-53714285D02*
X141307419Y-53619047D01*
X141307419Y-53619047D02*
X141307419Y-53380952D01*
X141307419Y-53380952D02*
X141355038Y-53285714D01*
X141355038Y-53285714D02*
X141402657Y-53238095D01*
X141402657Y-53238095D02*
X141497895Y-53190476D01*
X141497895Y-53190476D02*
X141593133Y-53190476D01*
X141593133Y-53190476D02*
X141735990Y-53238095D01*
X141735990Y-53238095D02*
X142307419Y-53809523D01*
X142307419Y-53809523D02*
X142307419Y-53190476D01*
D13*
X136764819Y-42497333D02*
X137479104Y-42497333D01*
X137479104Y-42497333D02*
X137621961Y-42544952D01*
X137621961Y-42544952D02*
X137717200Y-42640190D01*
X137717200Y-42640190D02*
X137764819Y-42783047D01*
X137764819Y-42783047D02*
X137764819Y-42878285D01*
X137764819Y-41497333D02*
X137764819Y-42068761D01*
X137764819Y-41783047D02*
X136764819Y-41783047D01*
X136764819Y-41783047D02*
X136907676Y-41878285D01*
X136907676Y-41878285D02*
X137002914Y-41973523D01*
X137002914Y-41973523D02*
X137050533Y-42068761D01*
D12*
X137738095Y-62457419D02*
X137738095Y-63266942D01*
X137738095Y-63266942D02*
X137785714Y-63362180D01*
X137785714Y-63362180D02*
X137833333Y-63409800D01*
X137833333Y-63409800D02*
X137928571Y-63457419D01*
X137928571Y-63457419D02*
X138119047Y-63457419D01*
X138119047Y-63457419D02*
X138214285Y-63409800D01*
X138214285Y-63409800D02*
X138261904Y-63362180D01*
X138261904Y-63362180D02*
X138309523Y-63266942D01*
X138309523Y-63266942D02*
X138309523Y-62457419D01*
X139309523Y-63457419D02*
X138738095Y-63457419D01*
X139023809Y-63457419D02*
X139023809Y-62457419D01*
X139023809Y-62457419D02*
X138928571Y-62600276D01*
X138928571Y-62600276D02*
X138833333Y-62695514D01*
X138833333Y-62695514D02*
X138738095Y-62743133D01*
D13*
X147333333Y-51609580D02*
X147285714Y-51657200D01*
X147285714Y-51657200D02*
X147142857Y-51704819D01*
X147142857Y-51704819D02*
X147047619Y-51704819D01*
X147047619Y-51704819D02*
X146904762Y-51657200D01*
X146904762Y-51657200D02*
X146809524Y-51561961D01*
X146809524Y-51561961D02*
X146761905Y-51466723D01*
X146761905Y-51466723D02*
X146714286Y-51276247D01*
X146714286Y-51276247D02*
X146714286Y-51133390D01*
X146714286Y-51133390D02*
X146761905Y-50942914D01*
X146761905Y-50942914D02*
X146809524Y-50847676D01*
X146809524Y-50847676D02*
X146904762Y-50752438D01*
X146904762Y-50752438D02*
X147047619Y-50704819D01*
X147047619Y-50704819D02*
X147142857Y-50704819D01*
X147142857Y-50704819D02*
X147285714Y-50752438D01*
X147285714Y-50752438D02*
X147333333Y-50800057D01*
X147714286Y-50800057D02*
X147761905Y-50752438D01*
X147761905Y-50752438D02*
X147857143Y-50704819D01*
X147857143Y-50704819D02*
X148095238Y-50704819D01*
X148095238Y-50704819D02*
X148190476Y-50752438D01*
X148190476Y-50752438D02*
X148238095Y-50800057D01*
X148238095Y-50800057D02*
X148285714Y-50895295D01*
X148285714Y-50895295D02*
X148285714Y-50990533D01*
X148285714Y-50990533D02*
X148238095Y-51133390D01*
X148238095Y-51133390D02*
X147666667Y-51704819D01*
X147666667Y-51704819D02*
X148285714Y-51704819D01*
X147333333Y-48204819D02*
X147000000Y-47728628D01*
X146761905Y-48204819D02*
X146761905Y-47204819D01*
X146761905Y-47204819D02*
X147142857Y-47204819D01*
X147142857Y-47204819D02*
X147238095Y-47252438D01*
X147238095Y-47252438D02*
X147285714Y-47300057D01*
X147285714Y-47300057D02*
X147333333Y-47395295D01*
X147333333Y-47395295D02*
X147333333Y-47538152D01*
X147333333Y-47538152D02*
X147285714Y-47633390D01*
X147285714Y-47633390D02*
X147238095Y-47681009D01*
X147238095Y-47681009D02*
X147142857Y-47728628D01*
X147142857Y-47728628D02*
X146761905Y-47728628D01*
X148285714Y-48204819D02*
X147714286Y-48204819D01*
X148000000Y-48204819D02*
X148000000Y-47204819D01*
X148000000Y-47204819D02*
X147904762Y-47347676D01*
X147904762Y-47347676D02*
X147809524Y-47442914D01*
X147809524Y-47442914D02*
X147714286Y-47490533D01*
X141658333Y-49704819D02*
X141325000Y-49228628D01*
X141086905Y-49704819D02*
X141086905Y-48704819D01*
X141086905Y-48704819D02*
X141467857Y-48704819D01*
X141467857Y-48704819D02*
X141563095Y-48752438D01*
X141563095Y-48752438D02*
X141610714Y-48800057D01*
X141610714Y-48800057D02*
X141658333Y-48895295D01*
X141658333Y-48895295D02*
X141658333Y-49038152D01*
X141658333Y-49038152D02*
X141610714Y-49133390D01*
X141610714Y-49133390D02*
X141563095Y-49181009D01*
X141563095Y-49181009D02*
X141467857Y-49228628D01*
X141467857Y-49228628D02*
X141086905Y-49228628D01*
X142039286Y-48800057D02*
X142086905Y-48752438D01*
X142086905Y-48752438D02*
X142182143Y-48704819D01*
X142182143Y-48704819D02*
X142420238Y-48704819D01*
X142420238Y-48704819D02*
X142515476Y-48752438D01*
X142515476Y-48752438D02*
X142563095Y-48800057D01*
X142563095Y-48800057D02*
X142610714Y-48895295D01*
X142610714Y-48895295D02*
X142610714Y-48990533D01*
X142610714Y-48990533D02*
X142563095Y-49133390D01*
X142563095Y-49133390D02*
X141991667Y-49704819D01*
X141991667Y-49704819D02*
X142610714Y-49704819D01*
X147333333Y-50109580D02*
X147285714Y-50157200D01*
X147285714Y-50157200D02*
X147142857Y-50204819D01*
X147142857Y-50204819D02*
X147047619Y-50204819D01*
X147047619Y-50204819D02*
X146904762Y-50157200D01*
X146904762Y-50157200D02*
X146809524Y-50061961D01*
X146809524Y-50061961D02*
X146761905Y-49966723D01*
X146761905Y-49966723D02*
X146714286Y-49776247D01*
X146714286Y-49776247D02*
X146714286Y-49633390D01*
X146714286Y-49633390D02*
X146761905Y-49442914D01*
X146761905Y-49442914D02*
X146809524Y-49347676D01*
X146809524Y-49347676D02*
X146904762Y-49252438D01*
X146904762Y-49252438D02*
X147047619Y-49204819D01*
X147047619Y-49204819D02*
X147142857Y-49204819D01*
X147142857Y-49204819D02*
X147285714Y-49252438D01*
X147285714Y-49252438D02*
X147333333Y-49300057D01*
X148285714Y-50204819D02*
X147714286Y-50204819D01*
X148000000Y-50204819D02*
X148000000Y-49204819D01*
X148000000Y-49204819D02*
X147904762Y-49347676D01*
X147904762Y-49347676D02*
X147809524Y-49442914D01*
X147809524Y-49442914D02*
X147714286Y-49490533D01*
%TO.C,U2*%
D12*
X142800000Y-55000000D02*
X142800000Y-53000000D01*
X145200000Y-55000000D02*
X145200000Y-53000000D01*
X143000000Y-55914177D02*
X142800000Y-56164177D01*
X143200000Y-56164177D01*
X143000000Y-55914177D01*
G36*
X143200000Y-56164177D02*
G01*
X142800000Y-56164177D01*
X143000000Y-55914177D01*
X143200000Y-56164177D01*
G37*
%TO.C,J1*%
D14*
X148690000Y-43544000D02*
X148690000Y-40784000D01*
X140960000Y-43544000D02*
X148690000Y-43544000D01*
X140960000Y-43544000D02*
X140960000Y-40784000D01*
X140960000Y-40784000D02*
X148690000Y-40784000D01*
X139690000Y-43544000D02*
X138310000Y-43544000D01*
X138310000Y-43544000D02*
X138310000Y-42164000D01*
%TO.C,C2*%
X144859420Y-51760000D02*
X145140580Y-51760000D01*
X144859420Y-50740000D02*
X145140580Y-50740000D01*
%TO.C,R1*%
X145237258Y-47227500D02*
X144762742Y-47227500D01*
X145237258Y-48272500D02*
X144762742Y-48272500D01*
%TO.C,R2*%
X141587742Y-47227500D02*
X142062258Y-47227500D01*
X141587742Y-48272500D02*
X142062258Y-48272500D01*
%TO.C,C1*%
X144859420Y-49240000D02*
X145140580Y-49240000D01*
X144859420Y-50260000D02*
X145140580Y-50260000D01*
%TD*%
M02*
