M48
; DRILL file KiCad 10.0.5 date 2026-08-16T21:55:22
; FORMAT={-:-/ absolute / metric / decimal}
; #@! TF.CreationDate,2026-08-16T21:55:22+02:00
; #@! TF.GenerationSoftware,Kicad,Pcbnew,10.0.5
; #@! TF.FileFunction,Plated,1,2,PTH
FMAT,2
METRIC
; #@! TA.AperFunction,Plated,PTH,ViaDrill
T1C0.300
; #@! TA.AperFunction,Plated,PTH,ComponentDrill
T2C1.000
%
G90
G05
T1
X137.75Y-44.25
X137.75Y-46.0
X137.75Y-48.0
X137.75Y-49.75
X137.75Y-51.75
X139.75Y-49.75
X139.75Y-51.75
X141.5Y-49.75
X141.5Y-51.75
X142.0Y-55.0
X142.5Y-56.25
X146.312Y-53.938
X147.5Y-49.75
X149.25Y-44.5
X149.25Y-46.25
X149.25Y-48.0
X149.25Y-49.75
X149.25Y-51.75
X149.75Y-42.25
T2
X139.69Y-42.164
X142.23Y-42.164
X144.77Y-42.164
X147.31Y-42.164
M30
