%TF.GenerationSoftware,KiCad,Pcbnew,10.0.5*%
%TF.CreationDate,2026-08-16T21:55:27+02:00*%
%TF.ProjectId,soil_probe_oop,736f696c-5f70-4726-9f62-655f6f6f702e,rev?*%
%TF.SameCoordinates,Original*%
%TF.FileFunction,Copper,L1,Top*%
%TF.FilePolarity,Positive*%
%FSLAX46Y46*%
G04 Gerber Fmt 4.6, Leading zero omitted, Abs format (unit mm)*
G04 Created by KiCad (PCBNEW 10.0.5) date 2026-08-16 21:55:27*
%MOMM*%
%LPD*%
G01*
G04 APERTURE LIST*
G04 Aperture macros list*
%AMRoundRect*
0 Rectangle with rounded corners*
0 $1 Rounding radius*
0 $2 $3 $4 $5 $6 $7 $8 $9 X,Y pos of 4 corners*
0 Add a 4 corners polygon primitive as box body*
4,1,4,$2,$3,$4,$5,$6,$7,$8,$9,$2,$3,0*
0 Add four circle primitives for the rounded corners*
1,1,$1+$1,$2,$3*
1,1,$1+$1,$4,$5*
1,1,$1+$1,$6,$7*
1,1,$1+$1,$8,$9*
0 Add four rect primitives between the rounded corners*
20,1,$1+$1,$2,$3,$4,$5,0*
20,1,$1+$1,$4,$5,$6,$7,0*
20,1,$1+$1,$6,$7,$8,$9,0*
20,1,$1+$1,$8,$9,$2,$3,0*%
G04 Aperture macros list end*
%TA.AperFunction,SMDPad,CuDef*%
%ADD10RoundRect,0.125000X0.000010X-0.200000X0.000010X0.200000X-0.000010X0.200000X-0.000010X-0.200000X0*%
%TD*%
%TA.AperFunction,SMDPad,CuDef*%
%ADD11R,2.000000X1.200000*%
%TD*%
%TA.AperFunction,ComponentPad*%
%ADD12C,1.700000*%
%TD*%
%TA.AperFunction,ComponentPad*%
%ADD13R,1.700000X1.700000*%
%TD*%
%TA.AperFunction,SMDPad,CuDef*%
%ADD14R,4.200000X8.500000*%
%TD*%
%TA.AperFunction,SMDPad,CuDef*%
%ADD15R,4.200000X59.000000*%
%TD*%
%TA.AperFunction,SMDPad,CuDef*%
%ADD16RoundRect,0.225000X-0.225000X-0.250000X0.225000X-0.250000X0.225000X0.250000X-0.225000X0.250000X0*%
%TD*%
%TA.AperFunction,SMDPad,CuDef*%
%ADD17RoundRect,0.200000X0.200000X0.275000X-0.200000X0.275000X-0.200000X-0.275000X0.200000X-0.275000X0*%
%TD*%
%TA.AperFunction,SMDPad,CuDef*%
%ADD18RoundRect,0.200000X-0.200000X-0.275000X0.200000X-0.275000X0.200000X0.275000X-0.200000X0.275000X0*%
%TD*%
%TA.AperFunction,ViaPad*%
%ADD19C,0.700000*%
%TD*%
%TA.AperFunction,Conductor*%
%ADD20C,0.400000*%
%TD*%
%TA.AperFunction,Conductor*%
%ADD21C,0.250000*%
%TD*%
G04 APERTURE END LIST*
D10*
%TO.P,U2,1,SHLD1_1*%
%TO.N,/SHLD1*%
X143000000Y-55375000D03*
%TO.P,U2,2,CIN1_2*%
%TO.N,/CIN1*%
X143500000Y-55375000D03*
%TO.P,U2,3,CIN2_3*%
%TO.N,/CIN2*%
X144000000Y-55375000D03*
%TO.P,U2,4,CIN3_4*%
%TO.N,/CIN3*%
X144500000Y-55375000D03*
%TO.P,U2,5,CIN4_5*%
%TO.N,unconnected-(U2-CIN4-Pad5)*%
X145000000Y-55375000D03*
%TO.P,U2,6,SHLD2_6*%
%TO.N,Net-(U1-SHLD2)*%
X145000000Y-52625000D03*
%TO.P,U2,7,GND_7*%
%TO.N,GND*%
X144500000Y-52625000D03*
%TO.P,U2,8,VDD_8*%
%TO.N,+3.3V*%
X144000000Y-52625000D03*
%TO.P,U2,9,SCL_9*%
%TO.N,/SCL*%
X143500000Y-52625000D03*
%TO.P,U2,10,SDA_10*%
%TO.N,/SDA*%
X143000000Y-52625000D03*
D11*
%TO.P,U2,11,DAP_11*%
%TO.N,GND*%
X144000000Y-54000000D03*
%TD*%
D12*
%TO.P,J1,4,Pin_4_4*%
%TO.N,GND*%
X147310000Y-42164000D03*
%TO.P,J1,3,Pin_3_3*%
%TO.N,/SCL*%
X144770000Y-42164000D03*
%TO.P,J1,2,Pin_2_2*%
%TO.N,/SDA*%
X142230000Y-42164000D03*
D13*
%TO.P,J1,1,Pin_1_1*%
%TO.N,+3.3V*%
X139690000Y-42164000D03*
%TD*%
D14*
%TO.P,U1,6,SHLD2_6*%
%TO.N,Net-(U1-SHLD2)*%
X154000000Y-139000000D03*
X154000000Y-69000000D03*
D15*
X133000000Y-114000000D03*
D14*
%TO.P,U1,3,SENSE3_3*%
%TO.N,/CIN3*%
X147000000Y-69000000D03*
%TO.P,U1,2,SENSE2_2*%
%TO.N,/CIN2*%
X147000000Y-139000000D03*
D15*
%TO.P,U1,1,SENSE1_1*%
%TO.N,/CIN1*%
X140000000Y-114000000D03*
%TD*%
D16*
%TO.P,C2,1*%
%TO.N,+3.3V*%
X144225000Y-51250000D03*
%TO.P,C2,2*%
%TO.N,GND*%
X145775000Y-51250000D03*
%TD*%
D17*
%TO.P,R1,1*%
%TO.N,+3.3V*%
X145825000Y-47750000D03*
%TO.P,R1,2*%
%TO.N,/SCL*%
X144175000Y-47750000D03*
%TD*%
D18*
%TO.P,R2,1*%
%TO.N,+3.3V*%
X141000000Y-47750000D03*
%TO.P,R2,2*%
%TO.N,/SDA*%
X142650000Y-47750000D03*
%TD*%
D16*
%TO.P,C1,1*%
%TO.N,+3.3V*%
X144225000Y-49750000D03*
%TO.P,C1,2*%
%TO.N,GND*%
X145775000Y-49750000D03*
%TD*%
D19*
%TO.N,GND*%
X149750000Y-42250000D03*
X137750000Y-44250000D03*
X137750000Y-46000000D03*
X149250000Y-44500000D03*
X149250000Y-46250000D03*
X141500000Y-51750000D03*
X139750000Y-51750000D03*
X137750000Y-51750000D03*
X137750000Y-48000000D03*
X137750000Y-49750000D03*
X139750000Y-49750000D03*
X141500000Y-49750000D03*
X147500000Y-49750000D03*
X149250000Y-51750000D03*
X149250000Y-49750000D03*
X149250000Y-48000000D03*
%TO.N,Net-(U1-SHLD2)*%
X142000000Y-55000000D03*
X146312500Y-53937500D03*
%TO.N,/SHLD1*%
X142500000Y-56250000D03*
%TD*%
%TO.N,+3.3V*%
D20*
X144225000Y-49750000D02*
X144225000Y-51250000D01*
X145825000Y-47750000D02*
X145825000Y-48150000D01*
X145825000Y-48150000D02*
X144225000Y-49750000D01*
X139690000Y-42164000D02*
X140940000Y-40914000D01*
X140940000Y-40914000D02*
X145327767Y-40914000D01*
X145327767Y-40914000D02*
X146060000Y-41646233D01*
X146060000Y-41646233D02*
X146060000Y-47515000D01*
X146060000Y-47515000D02*
X145825000Y-47750000D01*
X139690000Y-42164000D02*
X139690000Y-46440000D01*
X139690000Y-46440000D02*
X141000000Y-47750000D01*
%TO.N,/SDA*%
D21*
X142650000Y-47750000D02*
X142650000Y-42584000D01*
X142650000Y-42584000D02*
X142230000Y-42164000D01*
%TO.N,/SCL*%
X144175000Y-47750000D02*
X144175000Y-42759000D01*
X144175000Y-42759000D02*
X144770000Y-42164000D01*
%TO.N,Net-(U1-SHLD2)*%
X146312500Y-53937500D02*
X145000000Y-52625000D01*
X142000000Y-55000000D02*
X133000000Y-64000000D01*
X133000000Y-64000000D02*
X133000000Y-114000000D01*
X154000000Y-69000000D02*
X154000000Y-61625000D01*
X154000000Y-61625000D02*
X145000000Y-52625000D01*
%TO.N,GND*%
X145775000Y-49750000D02*
X147310000Y-48215000D01*
X147310000Y-48215000D02*
X147310000Y-45000000D01*
X145775000Y-51250000D02*
X145775000Y-49750000D01*
X144500000Y-52625000D02*
X144500000Y-52285140D01*
X144500000Y-52285140D02*
X145535140Y-51250000D01*
X145535140Y-51250000D02*
X145775000Y-51250000D01*
X144000000Y-54000000D02*
X144500000Y-53500000D01*
X144500000Y-53500000D02*
X144500000Y-52625000D01*
%TO.N,/SHLD1*%
X143000000Y-55750000D02*
X142500000Y-56250000D01*
X143000000Y-55375000D02*
X143000000Y-55750000D01*
%TO.N,/CIN1*%
X143500000Y-55375000D02*
X143500000Y-62863604D01*
X143500000Y-62863604D02*
X140000000Y-66363604D01*
X140000000Y-66363604D02*
X140000000Y-114000000D01*
%TO.N,/CIN2*%
X144000000Y-63000000D02*
X143500000Y-63500000D01*
X143500000Y-135500000D02*
X147000000Y-139000000D01*
X144000000Y-55375000D02*
X144000000Y-63000000D01*
X143500000Y-63500000D02*
X143500000Y-135500000D01*
%TO.N,/CIN3*%
X147000000Y-69000000D02*
X147000000Y-63750000D01*
X147000000Y-63750000D02*
X144500000Y-61250000D01*
X144500000Y-61250000D02*
X144500000Y-55375000D01*
%TO.N,Net-(U1-SHLD2)*%
X154000000Y-139000000D02*
X154000000Y-69000000D01*
%TO.N,+3.3V*%
X144225000Y-51250000D02*
X144000000Y-51475000D01*
X144000000Y-51475000D02*
X144000000Y-52625000D01*
%TO.N,/SDA*%
X143000000Y-52625000D02*
X143000000Y-48100000D01*
X143000000Y-48100000D02*
X142650000Y-47750000D01*
%TO.N,/SCL*%
X143500000Y-52625000D02*
X143450000Y-52575000D01*
X143450000Y-52575000D02*
X143450000Y-48475000D01*
X143450000Y-48475000D02*
X144175000Y-47750000D01*
%TD*%
%TA.AperFunction,Conductor*%
%TO.N,GND*%
G36*
X140198519Y-40452185D02*
G01*
X140244274Y-40504989D01*
X140254218Y-40574147D01*
X140225193Y-40637703D01*
X140219161Y-40644181D01*
X140086161Y-40777181D01*
X140024838Y-40810666D01*
X139998480Y-40813500D01*
X138792129Y-40813500D01*
X138792123Y-40813501D01*
X138732516Y-40819908D01*
X138597671Y-40870202D01*
X138597664Y-40870206D01*
X138482455Y-40956452D01*
X138482452Y-40956455D01*
X138396206Y-41071664D01*
X138396202Y-41071671D01*
X138345908Y-41206517D01*
X138339501Y-41266116D01*
X138339500Y-41266135D01*
X138339500Y-43061870D01*
X138339501Y-43061876D01*
X138345908Y-43121483D01*
X138396202Y-43256328D01*
X138396206Y-43256335D01*
X138482452Y-43371544D01*
X138482455Y-43371547D01*
X138597664Y-43457793D01*
X138597671Y-43457797D01*
X138611104Y-43462807D01*
X138732517Y-43508091D01*
X138792127Y-43514500D01*
X138865500Y-43514499D01*
X138932538Y-43534183D01*
X138978294Y-43586986D01*
X138989500Y-43638499D01*
X138989500Y-46371006D01*
X138989500Y-46508994D01*
X138989500Y-46508996D01*
X138989499Y-46508996D01*
X139016418Y-46644322D01*
X139016421Y-46644332D01*
X139069222Y-46771807D01*
X139145887Y-46886545D01*
X139145888Y-46886546D01*
X140063181Y-47803838D01*
X140096666Y-47865161D01*
X140099500Y-47891519D01*
X140099500Y-48081613D01*
X140105913Y-48152192D01*
X140156522Y-48314606D01*
X140244530Y-48460188D01*
X140364811Y-48580469D01*
X140364813Y-48580470D01*
X140364815Y-48580472D01*
X140510394Y-48668478D01*
X140672804Y-48719086D01*
X140743384Y-48725500D01*
X140743387Y-48725500D01*
X141256613Y-48725500D01*
X141256616Y-48725500D01*
X141327196Y-48719086D01*
X141489606Y-48668478D01*
X141635185Y-48580472D01*
X141635189Y-48580468D01*
X141737319Y-48478339D01*
X141798642Y-48444854D01*
X141868334Y-48449838D01*
X141912681Y-48478339D01*
X142014811Y-48580469D01*
X142014813Y-48580470D01*
X142014815Y-48580472D01*
X142160394Y-48668478D01*
X142287392Y-48708051D01*
X142345538Y-48746788D01*
X142373512Y-48810813D01*
X142374500Y-48826436D01*
X142374500Y-52516000D01*
X142354815Y-52583039D01*
X142302011Y-52628794D01*
X142250500Y-52640000D01*
X136424500Y-52640000D01*
X136357461Y-52620315D01*
X136311706Y-52567511D01*
X136300500Y-52516000D01*
X136300500Y-40556500D01*
X136320185Y-40489461D01*
X136372989Y-40443706D01*
X136424500Y-40432500D01*
X140131480Y-40432500D01*
X140198519Y-40452185D01*
G37*
%TD.AperFunction*%
%TA.AperFunction,Conductor*%
G36*
X150642539Y-40452185D02*
G01*
X150688294Y-40504989D01*
X150699500Y-40556500D01*
X150699500Y-52516000D01*
X150679815Y-52583039D01*
X150627011Y-52628794D01*
X150575500Y-52640000D01*
X145950952Y-52640000D01*
X145883913Y-52620315D01*
X145863271Y-52603681D01*
X145658195Y-52398605D01*
X145624710Y-52337282D01*
X145624018Y-52332576D01*
X145623848Y-52332608D01*
X145622709Y-52326374D01*
X145593257Y-52224999D01*
X146025000Y-52224999D01*
X146048308Y-52224999D01*
X146048322Y-52224998D01*
X146147607Y-52214855D01*
X146308481Y-52161547D01*
X146308492Y-52161542D01*
X146452728Y-52072575D01*
X146452732Y-52072572D01*
X146572572Y-51952732D01*
X146572575Y-51952728D01*
X146661542Y-51808492D01*
X146661547Y-51808481D01*
X146714855Y-51647606D01*
X146724999Y-51548322D01*
X146725000Y-51548309D01*
X146725000Y-51500000D01*
X146025000Y-51500000D01*
X146025000Y-52224999D01*
X145593257Y-52224999D01*
X145578619Y-52174614D01*
X145578617Y-52174608D01*
X145542268Y-52113145D01*
X145525000Y-52050024D01*
X145525000Y-51000000D01*
X146025000Y-51000000D01*
X146724999Y-51000000D01*
X146724999Y-50951692D01*
X146724998Y-50951677D01*
X146714855Y-50852392D01*
X146661547Y-50691518D01*
X146661544Y-50691511D01*
X146583570Y-50565098D01*
X146565129Y-50497705D01*
X146583570Y-50434902D01*
X146661544Y-50308488D01*
X146661547Y-50308481D01*
X146714855Y-50147606D01*
X146724999Y-50048322D01*
X146725000Y-50048309D01*
X146725000Y-50000000D01*
X146025000Y-50000000D01*
X146025000Y-51000000D01*
X145525000Y-51000000D01*
X145525000Y-49874000D01*
X145544685Y-49806961D01*
X145597489Y-49761206D01*
X145649000Y-49750000D01*
X145775000Y-49750000D01*
X145775000Y-49624000D01*
X145794685Y-49556961D01*
X145847489Y-49511206D01*
X145899000Y-49500000D01*
X146724999Y-49500000D01*
X146724999Y-49451692D01*
X146724998Y-49451677D01*
X146714855Y-49352392D01*
X146661547Y-49191518D01*
X146661542Y-49191507D01*
X146572575Y-49047271D01*
X146572572Y-49047267D01*
X146452732Y-48927427D01*
X146452728Y-48927424D01*
X146345172Y-48861082D01*
X146298447Y-48809134D01*
X146287226Y-48740171D01*
X146315069Y-48676090D01*
X146346116Y-48649429D01*
X146460185Y-48580472D01*
X146580472Y-48460185D01*
X146668478Y-48314606D01*
X146719086Y-48152196D01*
X146725500Y-48081616D01*
X146725500Y-47763501D01*
X146733052Y-47725539D01*
X146731810Y-47725163D01*
X146733576Y-47719338D01*
X146733580Y-47719329D01*
X146739733Y-47688393D01*
X146760500Y-47583993D01*
X146760500Y-43575601D01*
X146780185Y-43508562D01*
X146832989Y-43462807D01*
X146902147Y-43452863D01*
X146922820Y-43457671D01*
X146993866Y-43480756D01*
X146993872Y-43480757D01*
X147203754Y-43514000D01*
X147416246Y-43514000D01*
X147626127Y-43480757D01*
X147626130Y-43480757D01*
X147828217Y-43415095D01*
X148017554Y-43318622D01*
X148071716Y-43279270D01*
X148071717Y-43279270D01*
X147439409Y-42646962D01*
X147502993Y-42629925D01*
X147617007Y-42564099D01*
X147710099Y-42471007D01*
X147775925Y-42356993D01*
X147792962Y-42293408D01*
X148425270Y-42925717D01*
X148425270Y-42925716D01*
X148464622Y-42871554D01*
X148561095Y-42682217D01*
X148626757Y-42480130D01*
X148626757Y-42480127D01*
X148660000Y-42270246D01*
X148660000Y-42057753D01*
X148626757Y-41847872D01*
X148626757Y-41847869D01*
X148561095Y-41645782D01*
X148464624Y-41456449D01*
X148425270Y-41402282D01*
X148425269Y-41402282D01*
X147792962Y-42034590D01*
X147775925Y-41971007D01*
X147710099Y-41856993D01*
X147617007Y-41763901D01*
X147502993Y-41698075D01*
X147439407Y-41681036D01*
X148071716Y-41048728D01*
X148017550Y-41009375D01*
X147828217Y-40912904D01*
X147626129Y-40847242D01*
X147416246Y-40814000D01*
X147203754Y-40814000D01*
X146993872Y-40847242D01*
X146993869Y-40847242D01*
X146791782Y-40912904D01*
X146602446Y-41009376D01*
X146578863Y-41026511D01*
X146513056Y-41049990D01*
X146445002Y-41034164D01*
X146418297Y-41013873D01*
X146048605Y-40644181D01*
X146015120Y-40582858D01*
X146020104Y-40513166D01*
X146061976Y-40457233D01*
X146127440Y-40432816D01*
X146136286Y-40432500D01*
X150575500Y-40432500D01*
X150642539Y-40452185D01*
G37*
%TD.AperFunction*%
%TD*%
%TA.AperFunction,NonConductor*%
G36*
X143511920Y-42938180D02*
G01*
X143546277Y-42999018D01*
X143549500Y-43027104D01*
X143549500Y-46858480D01*
X143529815Y-46925519D01*
X143513181Y-46946161D01*
X143500181Y-46959161D01*
X143438858Y-46992646D01*
X143369166Y-46987662D01*
X143324819Y-46959161D01*
X143311819Y-46946161D01*
X143278334Y-46884838D01*
X143275500Y-46858480D01*
X143275500Y-43062890D01*
X143295185Y-42995851D01*
X143299182Y-42990005D01*
X143325182Y-42954219D01*
X143380512Y-42911553D01*
X143450125Y-42905574D01*
X143511920Y-42938180D01*
G37*
%TD.AperFunction*%
%TA.AperFunction,NonConductor*%
G36*
X145326856Y-43479284D02*
G01*
X145357684Y-43541985D01*
X145359500Y-43563130D01*
X145359500Y-46747013D01*
X145339815Y-46814052D01*
X145299651Y-46853129D01*
X145189814Y-46919528D01*
X145189810Y-46919531D01*
X145087681Y-47021661D01*
X145026358Y-47055146D01*
X144956666Y-47050162D01*
X144912319Y-47021661D01*
X144836819Y-46946161D01*
X144803334Y-46884838D01*
X144800500Y-46858480D01*
X144800500Y-43632409D01*
X144820185Y-43565370D01*
X144872989Y-43519615D01*
X144905101Y-43509936D01*
X145086243Y-43481246D01*
X145197183Y-43445198D01*
X145267023Y-43443204D01*
X145326856Y-43479284D01*
G37*
%TD.AperFunction*%
%TA.AperFunction,NonConductor*%
G36*
X141208418Y-43059417D02*
G01*
X141236673Y-43080569D01*
X141350213Y-43194109D01*
X141522179Y-43319048D01*
X141522181Y-43319049D01*
X141522184Y-43319051D01*
X141711588Y-43415557D01*
X141913757Y-43481246D01*
X141919892Y-43482217D01*
X141983026Y-43512141D01*
X142019962Y-43571450D01*
X142024500Y-43604691D01*
X142024500Y-46858480D01*
X142004815Y-46925519D01*
X141988181Y-46946161D01*
X141912681Y-47021661D01*
X141851358Y-47055146D01*
X141781666Y-47050162D01*
X141737319Y-47021661D01*
X141635188Y-46919530D01*
X141625499Y-46913673D01*
X141489606Y-46831522D01*
X141327196Y-46780914D01*
X141327194Y-46780913D01*
X141327192Y-46780913D01*
X141277778Y-46776423D01*
X141256616Y-46774500D01*
X141256613Y-46774500D01*
X141066519Y-46774500D01*
X140999480Y-46754815D01*
X140978838Y-46738181D01*
X140426819Y-46186162D01*
X140393334Y-46124839D01*
X140390500Y-46098481D01*
X140390500Y-43638499D01*
X140410185Y-43571460D01*
X140462989Y-43525705D01*
X140514500Y-43514499D01*
X140587871Y-43514499D01*
X140587872Y-43514499D01*
X140647483Y-43508091D01*
X140782331Y-43457796D01*
X140897546Y-43371546D01*
X140983796Y-43256331D01*
X141032810Y-43124916D01*
X141074681Y-43068984D01*
X141140145Y-43044566D01*
X141208418Y-43059417D01*
G37*
%TD.AperFunction*%
M02*
