%TF.GenerationSoftware,KiCad,Pcbnew,10.0.5*%
%TF.CreationDate,2026-07-27T21:44:01+02:00*%
%TF.ProjectId,soil_probe,736f696c-5f70-4726-9f62-652e6b696361,rev?*%
%TF.SameCoordinates,Original*%
%TF.FileFunction,Copper,L2,Bot*%
%TF.FilePolarity,Positive*%
%FSLAX46Y46*%
G04 Gerber Fmt 4.6, Leading zero omitted, Abs format (unit mm)*
G04 Created by KiCad (PCBNEW 10.0.5) date 2026-07-27 21:44:01*
%MOMM*%
%LPD*%
G01*
G04 APERTURE LIST*
%TA.AperFunction,SMDPad,CuDef*%
%ADD10R,14.000000X85.000000*%
%TD*%
%TA.AperFunction,ComponentPad*%
%ADD11R,1.700000X1.700000*%
%TD*%
%TA.AperFunction,ComponentPad*%
%ADD12C,1.700000*%
%TD*%
%TA.AperFunction,ViaPad*%
%ADD13C,0.700000*%
%TD*%
%TA.AperFunction,Conductor*%
%ADD14C,0.200000*%
%TD*%
G04 APERTURE END LIST*
D10*
%TO.P,U1,5,SHLD_5*%
%TO.N,Net-(U1-SHLD)*%
X142740852Y-101500000D03*
%TD*%
D11*
%TO.P,J1,1,Pin_1_1*%
%TO.N,+3.3V*%
X138930852Y-40500000D03*
D12*
%TO.P,J1,2,Pin_2_2*%
%TO.N,/SCL*%
X141470852Y-40500000D03*
%TO.P,J1,3,Pin_3_3*%
%TO.N,/SDA*%
X144010852Y-40500000D03*
%TO.P,J1,4,Pin_4_4*%
%TO.N,GND*%
X146550852Y-40500000D03*
%TD*%
D13*
%TO.N,GND*%
X143250000Y-54875000D03*
%TO.N,+3.3V*%
X141500000Y-48000000D03*
X143500000Y-48000000D03*
%TO.N,Net-(U1-SENSE1)*%
X145000000Y-58449998D03*
X142500000Y-57750000D03*
%TO.N,Net-(U1-SHLD)*%
X141500000Y-56250000D03*
%TD*%
%TO.N,+3.3V*%
D14*
X143500000Y-48000000D02*
X141500000Y-48000000D01*
%TO.N,Net-(U1-SENSE1)*%
X145000000Y-58449998D02*
X143199998Y-58449998D01*
X143199998Y-58449998D02*
X142500000Y-57750000D01*
%TO.N,Net-(U1-SHLD)*%
X141500000Y-56250000D02*
X141500000Y-99750000D01*
X141500000Y-99750000D02*
X143250000Y-101500000D01*
%TD*%
%TA.AperFunction,Conductor*%
%TO.N,GND*%
G36*
X149892539Y-38820185D02*
G01*
X149938294Y-38872989D01*
X149949500Y-38924500D01*
X149949500Y-55426184D01*
X149929815Y-55493223D01*
X149877011Y-55538978D01*
X149825093Y-55550183D01*
X141982193Y-55524441D01*
X141915219Y-55504537D01*
X141913711Y-55503545D01*
X141902863Y-55496297D01*
X141902861Y-55496296D01*
X141748082Y-55432184D01*
X141748074Y-55432182D01*
X141583771Y-55399500D01*
X141583767Y-55399500D01*
X141416233Y-55399500D01*
X141416228Y-55399500D01*
X141251925Y-55432182D01*
X141251917Y-55432184D01*
X141097140Y-55496295D01*
X141091001Y-55500397D01*
X141024322Y-55521269D01*
X141021711Y-55521288D01*
X135674093Y-55503736D01*
X135607119Y-55483832D01*
X135561537Y-55430878D01*
X135550500Y-55379737D01*
X135550500Y-47916228D01*
X140649500Y-47916228D01*
X140649500Y-48083771D01*
X140682182Y-48248074D01*
X140682184Y-48248082D01*
X140746295Y-48402860D01*
X140839373Y-48542162D01*
X140957837Y-48660626D01*
X141050494Y-48722537D01*
X141097137Y-48753703D01*
X141251918Y-48817816D01*
X141416228Y-48850499D01*
X141416232Y-48850500D01*
X141416233Y-48850500D01*
X141583768Y-48850500D01*
X141583769Y-48850499D01*
X141748082Y-48817816D01*
X141902863Y-48753703D01*
X142042162Y-48660626D01*
X142042165Y-48660623D01*
X142065970Y-48636819D01*
X142127293Y-48603334D01*
X142153651Y-48600500D01*
X142846349Y-48600500D01*
X142913388Y-48620185D01*
X142934030Y-48636819D01*
X142957837Y-48660626D01*
X143050494Y-48722537D01*
X143097137Y-48753703D01*
X143251918Y-48817816D01*
X143416228Y-48850499D01*
X143416232Y-48850500D01*
X143416233Y-48850500D01*
X143583768Y-48850500D01*
X143583769Y-48850499D01*
X143748082Y-48817816D01*
X143902863Y-48753703D01*
X144042162Y-48660626D01*
X144160626Y-48542162D01*
X144253703Y-48402863D01*
X144317816Y-48248082D01*
X144350500Y-48083767D01*
X144350500Y-47916233D01*
X144317816Y-47751918D01*
X144253703Y-47597137D01*
X144222537Y-47550494D01*
X144160626Y-47457837D01*
X144042162Y-47339373D01*
X143902860Y-47246295D01*
X143748082Y-47182184D01*
X143748074Y-47182182D01*
X143583771Y-47149500D01*
X143583767Y-47149500D01*
X143416233Y-47149500D01*
X143416228Y-47149500D01*
X143251925Y-47182182D01*
X143251917Y-47182184D01*
X143097139Y-47246295D01*
X142957837Y-47339373D01*
X142957834Y-47339376D01*
X142934030Y-47363181D01*
X142872707Y-47396666D01*
X142846349Y-47399500D01*
X142153651Y-47399500D01*
X142086612Y-47379815D01*
X142065970Y-47363181D01*
X142042162Y-47339373D01*
X141902860Y-47246295D01*
X141748082Y-47182184D01*
X141748074Y-47182182D01*
X141583771Y-47149500D01*
X141583767Y-47149500D01*
X141416233Y-47149500D01*
X141416228Y-47149500D01*
X141251925Y-47182182D01*
X141251917Y-47182184D01*
X141097139Y-47246295D01*
X140957837Y-47339373D01*
X140839373Y-47457837D01*
X140746295Y-47597139D01*
X140682184Y-47751917D01*
X140682182Y-47751925D01*
X140649500Y-47916228D01*
X135550500Y-47916228D01*
X135550500Y-39602135D01*
X137580352Y-39602135D01*
X137580352Y-41397870D01*
X137580353Y-41397876D01*
X137586760Y-41457483D01*
X137637054Y-41592328D01*
X137637058Y-41592335D01*
X137723304Y-41707544D01*
X137723307Y-41707547D01*
X137838516Y-41793793D01*
X137838523Y-41793797D01*
X137973369Y-41844091D01*
X137973368Y-41844091D01*
X137980296Y-41844835D01*
X138032979Y-41850500D01*
X139828724Y-41850499D01*
X139888335Y-41844091D01*
X140023183Y-41793796D01*
X140138398Y-41707546D01*
X140224648Y-41592331D01*
X140273662Y-41460916D01*
X140315533Y-41404984D01*
X140380997Y-41380566D01*
X140449270Y-41395417D01*
X140477525Y-41416569D01*
X140591065Y-41530109D01*
X140763031Y-41655048D01*
X140763033Y-41655049D01*
X140763036Y-41655051D01*
X140952440Y-41751557D01*
X141154609Y-41817246D01*
X141364565Y-41850500D01*
X141364566Y-41850500D01*
X141577138Y-41850500D01*
X141577139Y-41850500D01*
X141787095Y-41817246D01*
X141989264Y-41751557D01*
X142178668Y-41655051D01*
X142264990Y-41592335D01*
X142350638Y-41530109D01*
X142350640Y-41530106D01*
X142350644Y-41530104D01*
X142500956Y-41379792D01*
X142500958Y-41379788D01*
X142500961Y-41379786D01*
X142625900Y-41207820D01*
X142625899Y-41207820D01*
X142625903Y-41207816D01*
X142630366Y-41199054D01*
X142678340Y-41148259D01*
X142746160Y-41131463D01*
X142812296Y-41153999D01*
X142851338Y-41199056D01*
X142855803Y-41207820D01*
X142980742Y-41379786D01*
X143131065Y-41530109D01*
X143303031Y-41655048D01*
X143303033Y-41655049D01*
X143303036Y-41655051D01*
X143492440Y-41751557D01*
X143694609Y-41817246D01*
X143904565Y-41850500D01*
X143904566Y-41850500D01*
X144117138Y-41850500D01*
X144117139Y-41850500D01*
X144327095Y-41817246D01*
X144529264Y-41751557D01*
X144718668Y-41655051D01*
X144804990Y-41592335D01*
X144890638Y-41530109D01*
X144890640Y-41530106D01*
X144890644Y-41530104D01*
X145040956Y-41379792D01*
X145040958Y-41379788D01*
X145040961Y-41379786D01*
X145126742Y-41261717D01*
X145165903Y-41207816D01*
X145170645Y-41198508D01*
X145218615Y-41147711D01*
X145286435Y-41130911D01*
X145352571Y-41153445D01*
X145391615Y-41198500D01*
X145396225Y-41207547D01*
X145435580Y-41261716D01*
X146067889Y-40629408D01*
X146084927Y-40692993D01*
X146150753Y-40807007D01*
X146243845Y-40900099D01*
X146357859Y-40965925D01*
X146421442Y-40982962D01*
X145789134Y-41615269D01*
X145789134Y-41615270D01*
X145843301Y-41654624D01*
X146032634Y-41751095D01*
X146234722Y-41816757D01*
X146444606Y-41850000D01*
X146657098Y-41850000D01*
X146866979Y-41816757D01*
X146866982Y-41816757D01*
X147069069Y-41751095D01*
X147258406Y-41654622D01*
X147312568Y-41615270D01*
X147312569Y-41615270D01*
X146680260Y-40982962D01*
X146743845Y-40965925D01*
X146857859Y-40900099D01*
X146950951Y-40807007D01*
X147016777Y-40692993D01*
X147033814Y-40629408D01*
X147666122Y-41261717D01*
X147666122Y-41261716D01*
X147705474Y-41207554D01*
X147801947Y-41018217D01*
X147867609Y-40816130D01*
X147867609Y-40816127D01*
X147900852Y-40606246D01*
X147900852Y-40393753D01*
X147867609Y-40183872D01*
X147867609Y-40183869D01*
X147801947Y-39981782D01*
X147705476Y-39792449D01*
X147666122Y-39738282D01*
X147666121Y-39738282D01*
X147033814Y-40370590D01*
X147016777Y-40307007D01*
X146950951Y-40192993D01*
X146857859Y-40099901D01*
X146743845Y-40034075D01*
X146680261Y-40017037D01*
X147312568Y-39384728D01*
X147258402Y-39345375D01*
X147069069Y-39248904D01*
X146866981Y-39183242D01*
X146657098Y-39150000D01*
X146444606Y-39150000D01*
X146234724Y-39183242D01*
X146234721Y-39183242D01*
X146032634Y-39248904D01*
X145843291Y-39345380D01*
X145789134Y-39384727D01*
X145789134Y-39384728D01*
X146421443Y-40017037D01*
X146357859Y-40034075D01*
X146243845Y-40099901D01*
X146150753Y-40192993D01*
X146084927Y-40307007D01*
X146067889Y-40370591D01*
X145435580Y-39738282D01*
X145435579Y-39738282D01*
X145396232Y-39792440D01*
X145396228Y-39792446D01*
X145391612Y-39801505D01*
X145343633Y-39852297D01*
X145275811Y-39869087D01*
X145209678Y-39846543D01*
X145170646Y-39801493D01*
X145165903Y-39792184D01*
X145165901Y-39792181D01*
X145165900Y-39792179D01*
X145040961Y-39620213D01*
X144890638Y-39469890D01*
X144718672Y-39344951D01*
X144529266Y-39248444D01*
X144529265Y-39248443D01*
X144529264Y-39248443D01*
X144327095Y-39182754D01*
X144327093Y-39182753D01*
X144327092Y-39182753D01*
X144165809Y-39157208D01*
X144117139Y-39149500D01*
X143904565Y-39149500D01*
X143855894Y-39157208D01*
X143694612Y-39182753D01*
X143492437Y-39248444D01*
X143303031Y-39344951D01*
X143131065Y-39469890D01*
X142980742Y-39620213D01*
X142855801Y-39792182D01*
X142851336Y-39800946D01*
X142803361Y-39851742D01*
X142735540Y-39868536D01*
X142669405Y-39845998D01*
X142630368Y-39800946D01*
X142625902Y-39792182D01*
X142500961Y-39620213D01*
X142350638Y-39469890D01*
X142178672Y-39344951D01*
X141989266Y-39248444D01*
X141989265Y-39248443D01*
X141989264Y-39248443D01*
X141787095Y-39182754D01*
X141787093Y-39182753D01*
X141787092Y-39182753D01*
X141625809Y-39157208D01*
X141577139Y-39149500D01*
X141364565Y-39149500D01*
X141315894Y-39157208D01*
X141154612Y-39182753D01*
X140952437Y-39248444D01*
X140763031Y-39344951D01*
X140591067Y-39469889D01*
X140477525Y-39583431D01*
X140416202Y-39616915D01*
X140346510Y-39611931D01*
X140290577Y-39570059D01*
X140273662Y-39539082D01*
X140224649Y-39407671D01*
X140224645Y-39407664D01*
X140138399Y-39292455D01*
X140138396Y-39292452D01*
X140023187Y-39206206D01*
X140023180Y-39206202D01*
X139888334Y-39155908D01*
X139888335Y-39155908D01*
X139828735Y-39149501D01*
X139828733Y-39149500D01*
X139828725Y-39149500D01*
X139828716Y-39149500D01*
X138032981Y-39149500D01*
X138032975Y-39149501D01*
X137973368Y-39155908D01*
X137838523Y-39206202D01*
X137838516Y-39206206D01*
X137723307Y-39292452D01*
X137723304Y-39292455D01*
X137637058Y-39407664D01*
X137637054Y-39407671D01*
X137586760Y-39542517D01*
X137580353Y-39602116D01*
X137580352Y-39602135D01*
X135550500Y-39602135D01*
X135550500Y-38924500D01*
X135570185Y-38857461D01*
X135622989Y-38811706D01*
X135674500Y-38800500D01*
X149825500Y-38800500D01*
X149892539Y-38820185D01*
G37*
%TD.AperFunction*%
%TD*%
%TA.AperFunction,Conductor*%
%TO.N,Net-(U1-SHLD)*%
G36*
X141790470Y-57053849D02*
G01*
X141836225Y-57106653D01*
X141846169Y-57175811D01*
X141826533Y-57227054D01*
X141746298Y-57347134D01*
X141746296Y-57347138D01*
X141682184Y-57501917D01*
X141682182Y-57501925D01*
X141649500Y-57666228D01*
X141649500Y-57833771D01*
X141682182Y-57998074D01*
X141682184Y-57998082D01*
X141746295Y-58152860D01*
X141839373Y-58292162D01*
X141957837Y-58410626D01*
X142050494Y-58472537D01*
X142097137Y-58503703D01*
X142251918Y-58567816D01*
X142416228Y-58600499D01*
X142416232Y-58600500D01*
X142416233Y-58600500D01*
X142449902Y-58600500D01*
X142516941Y-58620185D01*
X142537583Y-58636819D01*
X142831282Y-58930518D01*
X142831284Y-58930519D01*
X142831288Y-58930522D01*
X142938050Y-58992160D01*
X142968214Y-59009575D01*
X143120941Y-59050499D01*
X143120943Y-59050499D01*
X143286652Y-59050499D01*
X143286668Y-59050498D01*
X144346349Y-59050498D01*
X144413388Y-59070183D01*
X144434030Y-59086817D01*
X144457837Y-59110624D01*
X144550494Y-59172535D01*
X144597137Y-59203701D01*
X144751918Y-59267814D01*
X144916228Y-59300497D01*
X144916232Y-59300498D01*
X144916233Y-59300498D01*
X145083768Y-59300498D01*
X145083769Y-59300497D01*
X145248082Y-59267814D01*
X145402863Y-59203701D01*
X145542162Y-59110624D01*
X145660626Y-58992160D01*
X145753703Y-58852861D01*
X145817816Y-58698080D01*
X145850500Y-58533765D01*
X145850500Y-58366231D01*
X145817816Y-58201916D01*
X145753703Y-58047135D01*
X145720921Y-57998074D01*
X145660626Y-57907835D01*
X145542162Y-57789371D01*
X145402860Y-57696293D01*
X145248082Y-57632182D01*
X145248074Y-57632180D01*
X145083771Y-57599498D01*
X145083767Y-57599498D01*
X144916233Y-57599498D01*
X144916228Y-57599498D01*
X144751925Y-57632180D01*
X144751917Y-57632182D01*
X144597139Y-57696293D01*
X144457837Y-57789371D01*
X144457834Y-57789374D01*
X144434030Y-57813179D01*
X144372707Y-57846664D01*
X144346349Y-57849498D01*
X143500096Y-57849498D01*
X143433057Y-57829813D01*
X143412415Y-57813179D01*
X143386819Y-57787583D01*
X143353334Y-57726260D01*
X143350500Y-57699902D01*
X143350500Y-57666232D01*
X143350499Y-57666228D01*
X143317817Y-57501925D01*
X143317816Y-57501918D01*
X143253703Y-57347137D01*
X143253701Y-57347134D01*
X143173467Y-57227054D01*
X143152589Y-57160377D01*
X143171074Y-57092997D01*
X143223053Y-57046307D01*
X143276569Y-57034164D01*
X149825500Y-57034164D01*
X149892539Y-57053849D01*
X149938294Y-57106653D01*
X149949500Y-57158164D01*
X149949500Y-144369053D01*
X149929815Y-144436092D01*
X149927952Y-144438907D01*
X142852451Y-154816308D01*
X142798421Y-154860609D01*
X142729018Y-154868666D01*
X142666276Y-154837922D01*
X142647547Y-154816308D01*
X135572048Y-144438907D01*
X135550546Y-144372428D01*
X135550500Y-144369053D01*
X135550500Y-57158164D01*
X135570185Y-57091125D01*
X135622989Y-57045370D01*
X135674500Y-57034164D01*
X141723431Y-57034164D01*
X141790470Y-57053849D01*
G37*
%TD.AperFunction*%
%TD*%
M02*
